<svg width="18" height="19" viewBox="0 0 18 19" fill="none" xmlns="http://www.w3.org/2000/svg">
<g clip-path="url(#clip0_11435_8860)">
<path d="M5.57075 14.5095H3.17366C2.91611 14.5095 2.70657 14.3 2.70657 14.0425V9.58722C2.70657 9.51263 2.67694 9.44109 2.6242 9.38835C2.57145 9.3356 2.49992 9.30597 2.42532 9.30597C2.35073 9.30597 2.2792 9.3356 2.22645 9.38835C2.17371 9.44109 2.14407 9.51263 2.14407 9.58722V13.2609C2.14407 13.6128 2.01357 13.8819 1.77659 14.0188C1.55823 14.1448 1.27237 14.1426 1.04839 14.0133C0.803074 13.8717 0.668004 13.6045 0.668004 13.2609V9.021C0.668004 7.38837 1.99624 6.0601 3.62893 6.0601H6.75946C7.02095 6.0601 7.28054 6.09462 7.53107 6.16276C7.60723 6.18352 7.68253 6.20729 7.7568 6.23402C7.82697 6.25932 7.90432 6.25571 7.97182 6.22398C8.03933 6.19226 8.09147 6.13501 8.11677 6.06485C8.1293 6.0301 8.13487 5.99323 8.13315 5.95634C8.13143 5.91945 8.12245 5.88325 8.10674 5.84982C8.09104 5.8164 8.0689 5.78639 8.04159 5.76152C8.01428 5.73665 7.98234 5.71741 7.9476 5.70488C7.85912 5.67299 7.7694 5.64466 7.67865 5.61995C7.37903 5.53862 7.06992 5.49748 6.75946 5.4976H5.89549C6.93165 5.19371 7.69071 4.23514 7.69071 3.10202C7.69071 1.72544 6.57077 0.605469 5.19416 0.605469C3.81755 0.605469 2.69761 1.72541 2.69761 3.10202C2.69761 4.23514 3.4567 5.19371 4.49283 5.4976H3.6289C1.68606 5.4976 0.105469 7.07819 0.105469 9.021V13.2609C0.105469 13.8059 0.346605 14.2577 0.767109 14.5005C1.16807 14.732 1.66268 14.7341 2.0578 14.5059C2.11075 14.4754 2.16133 14.4409 2.20911 14.4028C2.35547 14.7933 2.73263 15.072 3.17366 15.072H5.57075C5.64535 15.072 5.71688 15.0424 5.76963 14.9896C5.82237 14.9369 5.852 14.8654 5.852 14.7908C5.852 14.7162 5.82237 14.6446 5.76963 14.5919C5.71688 14.5392 5.64535 14.5095 5.57075 14.5095ZM3.26011 3.10205C3.26011 2.03562 4.12773 1.168 5.19416 1.168C6.26059 1.168 7.12821 2.03562 7.12821 3.10205C7.12821 4.16848 6.26059 5.03611 5.19416 5.03611C4.12773 5.03611 3.26011 4.16848 3.26011 3.10205ZM10.5421 16.1708H8.58382C8.39658 16.1708 8.24425 16.0185 8.24425 15.8312V12.1349C8.24425 12.0603 8.21461 11.9888 8.16187 11.936C8.10913 11.8833 8.03759 11.8536 7.963 11.8536C7.8884 11.8536 7.81687 11.8833 7.76412 11.936C7.71138 11.9888 7.68175 12.0603 7.68175 12.1349V15.1828C7.68175 15.6687 7.38415 15.8411 7.12927 15.8411C6.84239 15.8411 6.55288 15.6375 6.55288 15.1828V11.6651C6.55288 10.337 7.63341 9.25647 8.96154 9.25647H11.5588C11.8676 9.25608 12.1736 9.31582 12.4597 9.43236C12.4939 9.44628 12.5305 9.45332 12.5674 9.45308C12.6044 9.45285 12.6409 9.44534 12.6749 9.43099C12.7089 9.41664 12.7398 9.39573 12.7658 9.36944C12.7917 9.34316 12.8122 9.31203 12.8262 9.27781C12.8401 9.2436 12.8471 9.20698 12.8469 9.17005C12.8467 9.13311 12.8391 9.09659 12.8248 9.06255C12.8104 9.02852 12.7895 8.99765 12.7632 8.9717C12.737 8.94575 12.7058 8.92523 12.6716 8.91131C12.3183 8.76729 11.9403 8.69346 11.5588 8.69394H11.1126C11.8577 8.36516 12.3793 7.61974 12.3793 6.75437C12.3793 5.58584 11.4287 4.63518 10.2601 4.63518C9.09162 4.63518 8.14099 5.58584 8.14099 6.75437C8.14099 7.61974 8.66264 8.36516 9.40774 8.69394H8.96154C7.32326 8.69394 5.99041 10.0268 5.99041 11.6651V15.1828C5.99041 15.9842 6.56332 16.4036 7.12927 16.4036C7.35138 16.4036 7.57459 16.3362 7.76236 16.2038C7.90443 16.5158 8.21922 16.7333 8.58382 16.7333H10.5421C10.6167 16.7333 10.6882 16.7036 10.741 16.6509C10.7937 16.5981 10.8233 16.5266 10.8233 16.452C10.8233 16.3774 10.7937 16.3059 10.741 16.2531C10.6882 16.2004 10.6167 16.1708 10.5421 16.1708V16.1708ZM8.70349 6.75444C8.70349 5.89606 9.4018 5.19775 10.2601 5.19775C11.1185 5.19775 11.8168 5.89606 11.8168 6.75444C11.8168 7.61281 11.1185 8.31112 10.2601 8.31112C9.40177 8.31112 8.70349 7.61281 8.70349 6.75444ZM17.8945 14.2629C17.8945 12.9148 16.7978 11.818 15.4497 11.818H15.3157C15.8243 11.5092 16.1647 10.9501 16.1647 10.3129C16.1647 9.34268 15.3753 8.55331 14.4051 8.55331C13.4349 8.55331 12.6455 9.34268 12.6455 10.3129C12.6455 10.9501 12.9859 11.5092 13.4944 11.818H13.3605C12.0124 11.818 10.9156 12.9148 10.9156 14.2629V17.0924C10.9156 17.7659 11.4159 18.1293 11.8867 18.1293C12.056 18.1293 12.2262 18.0836 12.3749 17.9937C12.5085 18.2327 12.764 18.3945 13.0567 18.3945H15.7534C16.0485 18.3945 16.3059 18.23 16.4385 17.9879C16.4456 17.9922 16.4527 17.9964 16.4599 18.0006C16.7563 18.1717 17.1222 18.1731 17.4148 18.0042C17.7196 17.8282 17.8945 17.4959 17.8945 17.0923V14.2629L17.8945 14.2629ZM14.4051 9.11581C15.0652 9.11581 15.6022 9.65282 15.6022 10.3129C15.6022 10.973 15.0652 11.51 14.4051 11.51C13.745 11.51 13.208 10.973 13.208 10.3129C13.208 9.65282 13.745 9.11581 14.4051 9.11581ZM17.1336 17.5171C17.0162 17.5848 16.8622 17.5833 16.7412 17.5134C16.6076 17.4363 16.5341 17.2868 16.5341 17.0924V14.6408C16.5341 14.5662 16.5045 14.4946 16.4517 14.4419C16.399 14.3891 16.3274 14.3595 16.2528 14.3595C16.1782 14.3595 16.1067 14.3891 16.054 14.4419C16.0012 14.4946 15.9716 14.5662 15.9716 14.6408V17.6139C15.9715 17.6718 15.9485 17.7272 15.9076 17.7681C15.8667 17.809 15.8113 17.832 15.7534 17.832H13.0567C12.9989 17.832 12.9434 17.809 12.9025 17.7681C12.8616 17.7272 12.8386 17.6718 12.8386 17.6139V14.6408C12.8386 14.5662 12.8089 14.4946 12.7562 14.4419C12.7035 14.3891 12.6319 14.3595 12.5573 14.3595C12.4827 14.3595 12.4112 14.3891 12.3584 14.4419C12.3057 14.4946 12.2761 14.5662 12.2761 14.6408V17.0924C12.2761 17.4422 12.0749 17.5668 11.8867 17.5668C11.6833 17.5668 11.4781 17.4201 11.4781 17.0924V14.2629C11.4781 13.225 12.3226 12.3805 13.3605 12.3805H15.4497C16.4876 12.3805 17.332 13.225 17.332 14.2629V17.0924C17.332 17.2953 17.2634 17.4421 17.1336 17.5171Z" fill="#002868"/>
</g>
<defs>
<clipPath id="clip0_11435_8860">
<rect width="18" height="18" fill="white" transform="translate(0 0.5)"/>
</clipPath>
</defs>
</svg>
