<svg width="18" height="19" viewBox="0 0 18 19" fill="none" xmlns="http://www.w3.org/2000/svg">
<path d="M17.9883 10.6163C17.9999 10.5641 17.9971 10.5096 17.9802 10.4588C17.7745 7.48645 15.3149 5.17358 12.3355 5.15074C11.3411 1.81745 7.83282 -0.0786614 4.49952 0.915741C1.16619 1.91014 -0.729883 5.41845 0.264482 8.75175C0.523221 9.61906 0.965844 10.4204 1.5622 11.1012C2.15856 11.7821 2.89465 12.3264 3.72033 12.6971C3.12943 13.0132 2.58046 13.4021 2.08626 13.8547L1.23038 14.6392C0.863943 14.9751 0.839119 15.5443 1.17496 15.9108C1.2125 15.9517 1.25375 15.9891 1.29818 16.0225L2.26296 16.7461C3.65168 17.7832 5.33769 18.3452 7.07095 18.3486H7.92953C9.66259 18.345 11.3484 17.7831 12.7369 16.7461L13.0765 16.4914C15.8993 16.1091 18.0037 13.6973 18 10.8488C18 10.7702 17.9913 10.694 17.9883 10.6163ZM16.4151 7.84888C16.9581 8.58852 17.29 9.46182 17.3751 10.3754L17.1207 10.5026L15.6478 9.52074L16.1262 7.84888H16.4151ZM14.3854 6.20042C14.9526 6.45449 15.4689 6.80978 15.9087 7.2489H15.9C15.8349 7.24894 15.7715 7.27023 15.7194 7.30952C15.6674 7.34882 15.6296 7.40399 15.6118 7.46669L15.0496 9.43405L14.0857 9.87864L12.6001 8.88836V7.70518L14.2723 6.53521C14.3241 6.49856 14.363 6.4464 14.3834 6.38624C14.4037 6.32607 14.4044 6.26101 14.3854 6.20042ZM7.60914 7.61879C7.57696 7.64508 7.55061 7.67777 7.53174 7.71478C7.52824 7.72552 7.52534 7.73643 7.52304 7.74748L6.72446 6.9489L7.67754 5.99582C7.93102 6.22628 8.20281 6.43576 8.49022 6.62221H8.48962C8.15845 6.91911 7.86296 7.25355 7.60914 7.61879ZM7.21435 8.28687C6.87415 8.96 6.67208 9.6944 6.62006 10.4468C6.34252 9.66132 5.91066 8.93927 5.34989 8.32317L6.29967 7.37219L7.21435 8.28687ZM7.92263 8.24547L8.16263 8.36547L8.64681 9.57564L7.44024 10.7837L7.20865 10.6679C7.23809 9.81307 7.48373 8.97964 7.92263 8.24547ZM7.36584 11.4158C7.42217 11.4439 7.48591 11.4536 7.54804 11.4435C7.61017 11.4333 7.66754 11.4039 7.71204 11.3594L9.0722 9.99953L10.2521 10.4714L10.8116 12.4295C10.817 12.4447 10.8239 12.4593 10.832 12.4733C9.78636 11.9952 8.64997 11.748 7.50024 11.7488C7.42944 11.7488 7.35894 11.7518 7.28815 11.7536L7.28755 11.7521C7.26355 11.6177 7.24075 11.4821 7.22755 11.3465L7.36584 11.4158ZM10.4651 9.91163L9.2309 9.41785L8.67891 8.03788C8.65162 7.96952 8.60016 7.91358 8.53432 7.88068L8.26432 7.74508C8.77751 7.07718 9.44747 6.54611 10.2149 6.19892C10.1959 6.25951 10.1966 6.32457 10.2169 6.38474C10.2372 6.4449 10.2761 6.49706 10.328 6.53371L12.0001 7.70518V8.88836L10.4651 9.91163ZM12.3001 9.40885L13.7203 10.3577C13.7227 10.364 13.7221 10.3706 13.7251 10.3769C13.7306 10.3873 13.7368 10.3974 13.7437 10.4069L13.2739 12.0488H11.3264L10.8488 10.3769L12.3001 9.40885ZM13.666 5.94033V5.94183L13.744 6.17312L12.3001 7.1826L10.8563 6.17162L10.9343 5.94033C11.827 5.68514 12.7733 5.68514 13.666 5.94033ZM11.7187 5.17894C10.7318 5.281 9.78901 5.64072 8.98491 6.22202C8.67053 6.03392 8.37498 5.81603 8.10233 5.57133L10.5356 3.13899C11.068 3.72894 11.4711 4.42383 11.7187 5.17894ZM10.1078 2.7169L7.67784 5.14684C6.8284 4.20505 6.31845 3.00615 6.22917 1.74102L6.19437 1.25683C7.63697 1.2286 9.03621 1.75065 10.1078 2.7169ZM5.59618 1.30063L5.63068 1.78362C5.72972 3.19302 6.30121 4.52783 7.25275 5.57223L6.30027 6.52471L2.49276 2.7169C3.3571 1.93709 4.44074 1.44256 5.59618 1.30063ZM2.06857 3.14109L5.87608 6.9489L4.926 7.89898C3.88061 6.9478 2.54494 6.37705 1.13499 6.27902L0.651698 6.24452C0.793818 5.08901 1.28855 4.00537 2.06857 3.14109ZM0.608199 6.843L1.09239 6.8775C2.35789 6.96593 3.55748 7.47502 4.50031 8.32377L2.06767 10.7567C1.10167 9.68491 0.579855 8.28561 0.608199 6.843ZM2.48856 11.1851L4.926 8.74886C5.69903 9.6102 6.19018 10.6873 6.33357 11.8358C5.69351 11.9296 5.06722 12.1008 4.46851 12.3458C3.73683 12.0968 3.06326 11.7019 2.48856 11.1851ZM13.384 15.5053C13.3715 15.519 13.3577 15.5314 13.3429 15.5425L12.3766 16.2664C11.0921 17.2256 9.53268 17.7454 7.92953 17.7487H7.07095C5.46781 17.7454 3.90839 17.2256 2.62385 16.2664L1.65877 15.5425C1.62351 15.5161 1.59451 15.4822 1.57383 15.4433C1.55315 15.4044 1.5413 15.3614 1.53913 15.3174C1.53695 15.2733 1.5445 15.2294 1.56124 15.1886C1.57798 15.1478 1.60349 15.1112 1.63598 15.0815L2.49036 14.297C3.10111 13.7403 3.80077 13.2899 4.56031 12.9644C4.60586 12.9559 4.64879 12.9369 4.68571 12.9089C7.34199 11.8118 10.3933 12.3531 12.5101 14.297L13.3657 15.0815C13.4243 15.1352 13.4592 15.2101 13.4626 15.2896C13.4661 15.3691 13.4378 15.4467 13.384 15.5053ZM12.9142 13.8547C12.3943 13.3787 11.8139 12.9732 11.1881 12.6488H13.3759L14.0359 13.3088L13.4953 14.3887L12.9142 13.8547ZM13.9822 15.661C14.0419 15.5326 14.0688 15.3914 14.0605 15.25C14.0521 15.1086 14.0089 14.9715 13.9345 14.851L14.5855 13.5488H16.3146L16.4481 13.8157C15.8369 14.6712 14.9753 15.316 13.9822 15.661ZM16.8171 13.2137L16.77 13.1147C16.745 13.0646 16.7064 13.0225 16.6587 12.9932C16.611 12.9638 16.556 12.9485 16.5 12.9488H14.5243L13.837 12.2615L14.3659 10.4102L15.2734 9.99173L16.9335 11.0984C16.9774 11.1277 17.0283 11.1448 17.081 11.1481C17.1337 11.1514 17.1863 11.1408 17.2335 11.1173L17.3904 11.0387C17.3641 11.7974 17.1682 12.5406 16.8171 13.2137Z" fill="#002868"/>
<path d="M10.2002 14.7487H9.90025V14.4487C9.90025 14.3691 9.86865 14.2928 9.81239 14.2365C9.75613 14.1803 9.67982 14.1487 9.60026 14.1487C9.5207 14.1487 9.44439 14.1803 9.38813 14.2365C9.33187 14.2928 9.30027 14.3691 9.30027 14.4487V14.7487H8.70028V14.4487C8.70028 14.3691 8.66867 14.2928 8.61241 14.2365C8.55615 14.1803 8.47985 14.1487 8.40029 14.1487C8.32072 14.1487 8.24442 14.1803 8.18816 14.2365C8.1319 14.2928 8.10029 14.3691 8.10029 14.4487V14.7487H7.50031V14.4487C7.50031 14.3691 7.4687 14.2928 7.41244 14.2365C7.35618 14.1803 7.27988 14.1487 7.20031 14.1487C7.12075 14.1487 7.04445 14.1803 6.98819 14.2365C6.93193 14.2928 6.90032 14.3691 6.90032 14.4487V14.7487H6.30034V14.4487C6.30034 14.3691 6.26873 14.2928 6.21247 14.2365C6.15621 14.1803 6.07991 14.1487 6.00034 14.1487C5.92078 14.1487 5.84447 14.1803 5.78821 14.2365C5.73196 14.2928 5.70035 14.3691 5.70035 14.4487V14.7487H5.10036V14.4487C5.10036 14.3691 5.06876 14.2928 5.0125 14.2365C4.95624 14.1803 4.87993 14.1487 4.80037 14.1487C4.72081 14.1487 4.6445 14.1803 4.58824 14.2365C4.53198 14.2928 4.50038 14.3691 4.50038 14.4487V14.7487H4.20038C4.12082 14.7487 4.04452 14.7803 3.98826 14.8365C3.932 14.8928 3.90039 14.9691 3.90039 15.0487C3.90039 15.1282 3.932 15.2045 3.98826 15.2608C4.04452 15.317 4.12082 15.3487 4.20038 15.3487H4.50038V15.6486C4.50038 15.7282 4.53198 15.8045 4.58824 15.8608C4.6445 15.917 4.72081 15.9486 4.80037 15.9486C4.87993 15.9486 4.95624 15.917 5.0125 15.8608C5.06876 15.8045 5.10036 15.7282 5.10036 15.6486V15.3487H5.70035V15.6486C5.70035 15.7282 5.73196 15.8045 5.78821 15.8608C5.84447 15.917 5.92078 15.9486 6.00034 15.9486C6.07991 15.9486 6.15621 15.917 6.21247 15.8608C6.26873 15.8045 6.30034 15.7282 6.30034 15.6486V15.3487H6.90032V15.6486C6.90032 15.7282 6.93193 15.8045 6.98819 15.8608C7.04445 15.917 7.12075 15.9486 7.20031 15.9486C7.27988 15.9486 7.35618 15.917 7.41244 15.8608C7.4687 15.8045 7.50031 15.7282 7.50031 15.6486V15.3487H8.10029V15.6486C8.10029 15.7282 8.1319 15.8045 8.18816 15.8608C8.24442 15.917 8.32072 15.9486 8.40029 15.9486C8.47985 15.9486 8.55615 15.917 8.61241 15.8608C8.66867 15.8045 8.70028 15.7282 8.70028 15.6486V15.3487H9.30027V15.6486C9.30027 15.7282 9.33187 15.8045 9.38813 15.8608C9.44439 15.917 9.5207 15.9486 9.60026 15.9486C9.67982 15.9486 9.75613 15.917 9.81239 15.8608C9.86865 15.8045 9.90025 15.7282 9.90025 15.6486V15.3487H10.2002C10.2798 15.3487 10.3561 15.317 10.4124 15.2608C10.4686 15.2045 10.5002 15.1282 10.5002 15.0487C10.5002 14.9691 10.4686 14.8928 10.4124 14.8365C10.3561 14.7803 10.2798 14.7487 10.2002 14.7487Z" fill="#002868"/>
</svg>
