<svg width="18" height="19" viewBox="0 0 18 19" fill="none" xmlns="http://www.w3.org/2000/svg">
<path d="M3.66778 12.4652C5.44316 14.5874 7.58034 16.2584 10.0196 17.4407C10.9483 17.8809 12.1904 18.403 13.5741 18.4925C13.6599 18.4963 13.742 18.5 13.8277 18.5C14.7565 18.5 15.5024 18.1792 16.1104 17.5191C16.1141 17.5153 16.1216 17.5079 16.1253 17.5004C16.3416 17.2393 16.5878 17.0044 16.8452 16.7545C17.0205 16.5866 17.1995 16.4113 17.3711 16.2323C18.1655 15.4043 18.1655 14.3525 17.3636 13.5506L15.122 11.309C14.7415 10.9136 14.2865 10.7047 13.8091 10.7047C13.3317 10.7047 12.8729 10.9136 12.4813 11.3052L11.146 12.6405C11.0229 12.5696 10.8961 12.5062 10.7768 12.4465C10.6276 12.3719 10.4896 12.3011 10.3665 12.2228C9.15058 11.4507 8.04656 10.4436 6.99103 9.1494C6.45767 8.47431 6.09961 7.90738 5.84971 7.32926C6.20031 7.01223 6.52853 6.68027 6.84557 6.35578C6.95746 6.24016 7.07308 6.12453 7.18871 6.00891C7.59153 5.60609 7.80785 5.13987 7.80785 4.66618C7.80785 4.1925 7.59526 3.72627 7.18871 3.32346L6.07723 2.21198C5.94668 2.08143 5.8236 1.95462 5.69679 1.82408C5.45062 1.57045 5.19327 1.30937 4.93964 1.07439C4.55547 0.697679 4.10417 0.5 3.62675 0.5C3.15307 0.5 2.69803 0.697679 2.29894 1.07812L0.904 2.47306C0.396747 2.98031 0.109553 3.59573 0.0498764 4.30812C-0.0209898 5.19954 0.143121 6.14691 0.568318 7.29196C1.22103 9.06361 2.2057 10.7085 3.66778 12.4652ZM0.959947 4.38645C1.0047 3.89039 1.19492 3.47638 1.55298 3.11832L2.94047 1.73083C3.1568 1.52196 3.3955 1.4138 3.62675 1.4138C3.85427 1.4138 4.08552 1.52196 4.29811 1.73829C4.54801 1.96954 4.78299 2.21198 5.03661 2.46933C5.16343 2.59988 5.29397 2.73042 5.42451 2.86469L6.53599 3.97617C6.76724 4.20742 6.88659 4.4424 6.88659 4.67364C6.88659 4.90489 6.76724 5.13987 6.53599 5.37111C6.42037 5.48674 6.30475 5.60609 6.18912 5.72172C5.84225 6.07232 5.51776 6.40427 5.1597 6.7213L5.14105 6.73995C4.83148 7.04952 4.87996 7.34418 4.95456 7.56797C4.95829 7.57915 4.96202 7.58661 4.96575 7.5978C5.25294 8.28782 5.65203 8.94426 6.27491 9.72752C7.39385 11.1075 8.57246 12.178 9.87043 13.0023C10.0308 13.1067 10.2024 13.1888 10.3628 13.2708C10.512 13.3454 10.65 13.4163 10.773 13.4946C10.788 13.5021 10.7992 13.5095 10.8141 13.517C10.9372 13.5804 11.0565 13.6102 11.1759 13.6102C11.4742 13.6102 11.6682 13.42 11.7316 13.3566L13.1265 11.9617C13.3429 11.7453 13.5778 11.6297 13.8091 11.6297C14.0926 11.6297 14.3238 11.805 14.4693 11.9617L16.7183 14.207C17.1659 14.6546 17.1622 15.1395 16.7071 15.6131C16.5505 15.781 16.3864 15.9414 16.2111 16.1092C15.95 16.3628 15.6777 16.6239 15.4316 16.9186C15.0026 17.3811 14.4916 17.5974 13.8315 17.5974C13.7681 17.5974 13.7009 17.5937 13.6375 17.5899C12.4142 17.5116 11.2766 17.0342 10.4224 16.6276C8.10251 15.505 6.06604 13.9123 4.37644 11.8908C2.98523 10.2161 2.04905 8.65707 1.4299 6.98612C1.04573 5.96042 0.90027 5.13614 0.959947 4.38645Z" fill="#002868"/>
</svg>
