<svg width="13" height="11" viewBox="0 0 13 11" fill="none" xmlns="http://www.w3.org/2000/svg">
<path d="M6.40068 2.56006C5.76778 2.56006 5.1491 2.74774 4.62286 3.09936C4.09662 3.45098 3.68647 3.95075 3.44427 4.53547C3.20207 5.1202 3.1387 5.76361 3.26217 6.38435C3.38564 7.00509 3.69042 7.57527 4.13794 8.0228C4.58547 8.47033 5.15566 8.7751 5.7764 8.89857C6.39714 9.02204 7.04055 8.95867 7.62527 8.71647C8.20999 8.47427 8.70977 8.06412 9.06139 7.53788C9.41301 7.01165 9.60068 6.39296 9.60068 5.76006C9.60068 4.91137 9.26354 4.09743 8.66343 3.49732C8.06331 2.8972 7.24938 2.56006 6.40068 2.56006ZM6.40068 8.32006C5.89436 8.32006 5.39942 8.16992 4.97843 7.88862C4.55744 7.60732 4.22931 7.20751 4.03555 6.73973C3.84179 6.27195 3.7911 5.75722 3.88987 5.26063C3.98865 4.76404 4.23247 4.30789 4.59049 3.94987C4.94851 3.59184 5.40466 3.34803 5.90125 3.24925C6.39785 3.15047 6.91258 3.20117 7.38035 3.39493C7.84813 3.58869 8.24795 3.91681 8.52925 4.3378C8.81054 4.75879 8.96068 5.25374 8.96068 5.76006C8.96068 6.43901 8.69097 7.09016 8.21088 7.57025C7.73078 8.05034 7.07964 8.32006 6.40068 8.32006Z" fill="white"/>
<path d="M10.5605 1.28H9.15889L8.89329 0.7488C8.77156 0.531101 8.59628 0.34807 8.38405 0.217036C8.17182 0.0860019 7.92966 0.0112992 7.68049 0H5.12049C4.87132 0.0112992 4.62916 0.0860019 4.41693 0.217036C4.2047 0.34807 4.02942 0.531101 3.90769 0.7488L3.64209 1.28H2.24049C1.6464 1.28 1.07665 1.516 0.656569 1.93608C0.236488 2.35616 0.000488281 2.92592 0.000488281 3.52V8.64C0.000488281 9.23409 0.236488 9.80384 0.656569 10.2239C1.07665 10.644 1.6464 10.88 2.24049 10.88H10.5605C11.1546 10.88 11.7243 10.644 12.1444 10.2239C12.5645 9.80384 12.8005 9.23409 12.8005 8.64V3.52C12.8005 2.92592 12.5645 2.35616 12.1444 1.93608C11.7243 1.516 11.1546 1.28 10.5605 1.28ZM12.1605 8.64C12.1605 9.06435 11.9919 9.47131 11.6919 9.77137C11.3918 10.0714 10.9848 10.24 10.5605 10.24H2.24049C1.81614 10.24 1.40918 10.0714 1.10912 9.77137C0.809059 9.47131 0.640488 9.06435 0.640488 8.64V3.52C0.640488 3.09565 0.809059 2.68869 1.10912 2.38863C1.40918 2.08857 1.81614 1.92 2.24049 1.92H3.84049C3.89958 1.91982 3.95747 1.90328 4.00774 1.87222C4.05801 1.84115 4.0987 1.79677 4.12529 1.744L4.48049 1.0368C4.54766 0.924298 4.64083 0.829549 4.75219 0.760505C4.86355 0.691461 4.98985 0.650136 5.12049 0.64H7.68049C7.81112 0.650136 7.93742 0.691461 8.04878 0.760505C8.16014 0.829549 8.25332 0.924298 8.32049 1.0368L8.67569 1.744C8.70228 1.79677 8.74296 1.84115 8.79323 1.87222C8.8435 1.90328 8.90139 1.91982 8.96049 1.92H10.5605C10.9848 1.92 11.3918 2.08857 11.6919 2.38863C11.9919 2.68869 12.1605 3.09565 12.1605 3.52V8.64Z" fill="white"/>
</svg>
