<svg width="20" height="21" viewBox="0 0 20 21" fill="none" xmlns="http://www.w3.org/2000/svg">
<path fill-rule="evenodd" clip-rule="evenodd" d="M14.689 2.798C13.818 2.513 12.632 2.5 10 2.5C8.589 2.5 7.58 2.5 6.785 2.555C5.999 2.608 5.495 2.711 5.087 2.881C4.48018 3.13216 3.92879 3.50041 3.46432 3.96472C2.99984 4.42902 2.63139 4.98027 2.38 5.587C2.21 5.996 2.107 6.499 2.054 7.285C2 8.08 2 9.088 2 10.5C2 11.912 2 12.92 2.055 13.715C2.108 14.501 2.211 15.005 2.381 15.413C2.63227 16.0196 3.00057 16.5708 3.46487 17.0351C3.92917 17.4994 4.48037 17.8677 5.087 18.119C5.496 18.289 5.999 18.392 6.785 18.445C7.58 18.5 8.59 18.5 10 18.5C11.41 18.5 12.42 18.5 13.215 18.445C14.001 18.392 14.505 18.289 14.913 18.119C15.5196 17.8677 16.0708 17.4994 16.5351 17.0351C16.9994 16.5708 17.3677 16.0196 17.619 15.413C17.789 15.004 17.892 14.501 17.945 13.715C18 12.92 18 11.912 18 10.5C18 9.734 18 9.084 17.99 8.516C17.9858 8.25078 18.087 7.99474 18.2716 7.80421C18.4561 7.61367 18.7088 7.50424 18.974 7.5C19.2392 7.49576 19.4953 7.59704 19.6858 7.78158C19.8763 7.96612 19.9858 8.21878 19.99 8.484C20 9.069 20 9.735 20 10.494V10.537C20 11.904 20 12.98 19.94 13.851C19.88 14.739 19.754 15.485 19.467 16.179C18.7565 17.894 17.394 19.2565 15.679 19.967C14.985 20.254 14.239 20.38 13.351 20.441C12.481 20.5 11.403 20.5 10.037 20.5H9.963C8.596 20.5 7.52 20.5 6.649 20.44C5.761 20.38 5.015 20.254 4.321 19.967C2.60602 19.2565 1.24345 17.894 0.533 16.179C0.246 15.485 0.12 14.739 0.059 13.851C1.49012e-08 12.981 0 11.904 0 10.537V10.463C0 9.097 -5.58794e-08 8.02 0.0599999 7.149C0.12 6.261 0.246 5.515 0.533 4.821C1.24322 3.1062 2.60539 1.74367 4.32 1.033C5.014 0.746 5.76 0.62 6.648 0.559C7.519 0.5 8.596 0.5 9.963 0.5H10.215C12.565 0.5 14.096 0.5 15.311 0.897C15.5561 0.984886 15.7573 1.16491 15.8717 1.39879C15.9862 1.63268 16.0049 1.90198 15.9238 2.14944C15.8428 2.3969 15.6685 2.603 15.4379 2.72393C15.2073 2.84486 14.9386 2.87207 14.689 2.798ZM19.864 3.496C19.9302 3.60945 19.9734 3.73484 19.9912 3.865C20.0089 3.99516 20.0009 4.12755 19.9674 4.25459C19.934 4.38162 19.8759 4.50083 19.7963 4.6054C19.7168 4.70996 19.6175 4.79784 19.504 4.864L19.282 4.993C15.6871 7.08998 12.7989 10.2108 10.986 13.957C10.9165 14.1006 10.8137 14.2255 10.6862 14.3213C10.5586 14.4171 10.41 14.4809 10.2527 14.5075C10.0954 14.5342 9.93401 14.5228 9.78202 14.4743C9.63004 14.4259 9.49185 14.3417 9.379 14.229L5.366 10.219C5.26826 10.1273 5.18993 10.017 5.13568 9.89446C5.08142 9.77194 5.05234 9.63976 5.05017 9.50579C5.04799 9.37181 5.07276 9.23876 5.12301 9.11454C5.17326 8.99033 5.24796 8.87748 5.34268 8.78269C5.43739 8.68791 5.55019 8.61313 5.67437 8.56279C5.79855 8.51246 5.93158 8.48759 6.06556 8.48967C6.19954 8.49175 6.33174 8.52074 6.45429 8.57491C6.57685 8.62907 6.68727 8.70732 6.779 8.805L9.829 11.852C11.8288 8.28846 14.7443 5.3239 18.274 3.265L18.496 3.136C18.6095 3.06978 18.7348 3.02656 18.865 3.00882C18.9952 2.99107 19.1275 2.99914 19.2546 3.03258C19.3816 3.06601 19.5008 3.12414 19.6054 3.20366C19.71 3.28317 19.7978 3.38251 19.864 3.496Z" fill="#28A745"/>
</svg>
