<svg width="20" height="20" viewBox="0 0 20 20" fill="none" xmlns="http://www.w3.org/2000/svg">
<path d="M14.042 4.26172C14.3349 3.96889 14.8097 3.96885 15.1025 4.26172C15.395 4.55463 15.3952 5.02952 15.1025 5.32227L10.7422 9.68164L15.1025 14.042C15.3949 14.3349 15.3953 14.8098 15.1025 15.1025C14.8098 15.3953 14.3349 15.3949 14.042 15.1025L9.68164 10.7422L5.32227 15.1025C5.02952 15.3952 4.55462 15.395 4.26172 15.1025C3.96885 14.8097 3.9689 14.3349 4.26172 14.042L8.62109 9.68164L4.26172 5.32227C3.96883 5.02937 3.96883 4.55461 4.26172 4.26172C4.55461 3.96883 5.02937 3.96883 5.32227 4.26172L9.68164 8.62109L14.042 4.26172Z" fill="black"/>
</svg>
