<svg width="20" height="20" viewBox="0 0 20 20" fill="none" xmlns="http://www.w3.org/2000/svg">
<path d="M9.10433 10C9.96962 10 10.8155 9.74341 11.5349 9.26268C12.2544 8.78195 12.8152 8.09867 13.1463 7.29924C13.4774 6.49982 13.5641 5.62015 13.3953 4.77148C13.2265 3.92281 12.8098 3.14326 12.1979 2.53141C11.5861 1.91956 10.8065 1.50288 9.95785 1.33407C9.10918 1.16526 8.22951 1.2519 7.43009 1.58303C6.63066 1.91416 5.94738 2.47492 5.46665 3.19438C4.98592 3.91385 4.72933 4.75971 4.72933 5.625C4.73065 6.78492 5.19201 7.89695 6.0122 8.71713C6.83238 9.53732 7.94441 9.99868 9.10433 10ZM9.10433 2.5C9.72239 2.5 10.3266 2.68328 10.8405 3.02666C11.3544 3.37004 11.7549 3.8581 11.9914 4.42912C12.228 5.00013 12.2899 5.62847 12.1693 6.23466C12.0487 6.84085 11.7511 7.39767 11.314 7.83471C10.877 8.27175 10.3202 8.56938 9.71398 8.68996C9.10779 8.81053 8.47946 8.74865 7.90844 8.51213C7.33742 8.2756 6.84936 7.87506 6.50598 7.36116C6.1626 6.84726 5.97933 6.24307 5.97933 5.625C5.98032 4.7965 6.30988 4.00223 6.89571 3.41639C7.48155 2.83055 8.27583 2.50099 9.10433 2.5ZM16.5087 15.625L17.8349 14.2994C17.9488 14.1815 18.0118 14.0236 18.0104 13.8598C18.0089 13.6959 17.9432 13.5391 17.8273 13.4232C17.7115 13.3074 17.5547 13.2416 17.3908 13.2402C17.227 13.2388 17.0691 13.3018 16.9512 13.4156L15.625 14.7413L14.2987 13.4156C14.1808 13.3018 14.0229 13.2388 13.8591 13.2402C13.6952 13.2416 13.5384 13.3074 13.4226 13.4232C13.3067 13.5391 13.241 13.6959 13.2395 13.8598C13.2381 14.0236 13.3011 14.1815 13.415 14.2994L14.7412 15.625L13.415 16.9506C13.3553 17.0083 13.3076 17.0772 13.2749 17.1535C13.2421 17.2298 13.2249 17.3118 13.2242 17.3948C13.2234 17.4777 13.2393 17.56 13.2707 17.6368C13.3021 17.7137 13.3485 17.7834 13.4072 17.8421C13.4659 17.9008 13.5357 17.9472 13.6125 17.9786C13.6893 18.0101 13.7716 18.0259 13.8546 18.0252C13.9376 18.0244 14.0196 18.0072 14.0958 17.9744C14.1721 17.9417 14.241 17.8941 14.2987 17.8344L15.625 16.5088L16.9512 17.8344C17.0691 17.9482 17.227 18.0112 17.3908 18.0098C17.5547 18.0084 17.7115 17.9426 17.8273 17.8268C17.9432 17.7109 18.0089 17.5541 18.0104 17.3903C18.0118 17.2264 17.9488 17.0685 17.8349 16.9506L16.5087 15.625ZM11.875 17.5H3.13745C3.03518 17.5006 2.93425 17.4767 2.84312 17.4303C2.752 17.3838 2.67333 17.3162 2.6137 17.2331C2.55865 17.161 2.52188 17.0765 2.50654 16.9871C2.49119 16.8976 2.49772 16.8058 2.52558 16.7194C2.82834 15.8295 3.30815 15.0102 3.93609 14.3108C4.56404 13.6114 5.3271 13.0464 6.17929 12.6499C7.03149 12.2533 7.95515 12.0334 8.89461 12.0035C9.83407 11.9736 10.7699 12.1342 11.6456 12.4756C11.7998 12.5365 11.9719 12.5335 12.124 12.4675C12.2761 12.4014 12.3957 12.2777 12.4565 12.1234C12.5173 11.9692 12.5144 11.7971 12.4484 11.645C12.3823 11.493 12.2586 11.3733 12.1043 11.3125C11.0698 10.9086 9.96404 10.7186 8.85398 10.7542C7.74393 10.7898 6.65262 11.0501 5.64606 11.5195C4.63949 11.9889 3.73858 12.6575 2.9978 13.485C2.25702 14.3125 1.69176 15.2816 1.3362 16.3338C1.24745 16.6078 1.22531 16.8991 1.27161 17.1834C1.31791 17.4678 1.43133 17.737 1.60245 17.9688C1.77894 18.2104 2.00989 18.4071 2.27658 18.5428C2.54328 18.6786 2.8382 18.7495 3.13745 18.75H11.875C12.0407 18.75 12.1997 18.6842 12.3169 18.5669C12.4341 18.4497 12.5 18.2908 12.5 18.125C12.5 17.9592 12.4341 17.8003 12.3169 17.6831C12.1997 17.5658 12.0407 17.5 11.875 17.5Z" fill="#FF0000"/>
</svg>
