<svg width="18" height="19" viewBox="0 0 18 19" fill="none" xmlns="http://www.w3.org/2000/svg">
<path d="M14.25 8.01901V4.25001C14.25 3.42275 13.5773 2.75 12.75 2.75H1.49998C0.672715 2.75 0 3.42271 0 4.25001V11.75C0 12.5773 0.672715 13.25 1.50001 13.25H9.90991C10.4013 14.9787 11.9908 16.25 13.875 16.25C14.6001 16.25 15.3131 16.0592 15.9379 15.6978C16.117 15.5941 16.1785 15.3649 16.0745 15.1854C15.9708 15.006 15.7412 14.9441 15.5621 15.0489C15.0516 15.344 14.4682 15.5 13.875 15.5C12.0139 15.5 10.5 13.9861 10.5 12.125C10.5 10.2639 12.0139 8.75001 13.875 8.75001C15.736 8.75001 17.25 10.2639 17.25 12.125V12.5C17.25 12.9135 16.9134 13.25 16.5 13.25C16.0866 13.25 15.75 12.9135 15.75 12.5V11C15.75 10.9508 15.7404 10.902 15.7215 10.8565C15.7027 10.8109 15.6751 10.7696 15.6402 10.7348C15.6054 10.6999 15.5641 10.6723 15.5185 10.6535C15.473 10.6346 15.4242 10.625 15.375 10.625C15.2741 10.625 15.1835 10.6658 15.1162 10.7305C14.7847 10.4351 14.3528 10.25 13.875 10.25C12.8412 10.25 12 11.0912 12 12.125C12 13.1588 12.8412 14 13.875 14C14.4339 14 14.9308 13.7493 15.2746 13.3601C15.5462 13.746 15.9932 14 16.5 14C17.3273 14 18 13.3273 18 12.5V12.125C18 9.97703 16.3492 8.20934 14.25 8.01901ZM1.50001 3.49999H12.75C12.7656 3.49999 12.7787 3.50797 12.7941 3.50892L7.43337 7.90918C7.24257 8.02931 6.96607 8.00438 6.84193 7.92823L1.45638 3.50885C1.47161 3.50793 1.48454 3.49999 1.50001 3.49999ZM13.5 8.01901C11.4008 8.20934 9.74999 9.97704 9.74999 12.125C9.74999 12.2516 9.75776 12.3763 9.76897 12.5H1.50001C1.08657 12.5 0.750023 12.1635 0.750023 11.75V4.25001C0.750023 4.1438 0.773473 4.0435 0.81348 3.95189L6.39921 8.5325C6.61746 8.67495 6.86834 8.75005 7.12505 8.75005C7.37188 8.75005 7.61319 8.68047 7.82561 8.54864C7.84706 8.53714 7.8673 8.52353 7.88604 8.508L13.4365 3.95182C13.4766 4.0435 13.5 4.1438 13.5 4.25005V8.01901H13.5ZM13.875 13.25C13.2546 13.25 12.75 12.7454 12.75 12.125C12.75 11.5046 13.2546 11 13.875 11C14.4954 11 15 11.5046 15 12.125C15 12.7454 14.4954 13.25 13.875 13.25Z" fill="#002868"/>
</svg>
