<svg width="21" height="21" viewBox="0 0 21 21" fill="none" xmlns="http://www.w3.org/2000/svg">
<path d="M15.8937 3.75H14.8521V3.125C14.8521 2.95924 14.7862 2.80027 14.669 2.68306C14.5518 2.56585 14.3928 2.5 14.2271 2.5C14.0613 2.5 13.9023 2.56585 13.7851 2.68306C13.6679 2.80027 13.6021 2.95924 13.6021 3.125V3.75H8.18541V3.125C8.18541 2.95924 8.11957 2.80027 8.00236 2.68306C7.88515 2.56585 7.72617 2.5 7.56041 2.5C7.39465 2.5 7.23568 2.56585 7.11847 2.68306C7.00126 2.80027 6.93541 2.95924 6.93541 3.125V3.75H5.89375C5.47153 3.70106 5.04372 3.74823 4.6423 3.88797C4.24089 4.02772 3.87627 4.25642 3.57572 4.55697C3.27516 4.85752 3.04646 5.22214 2.90672 5.62355C2.76698 6.02497 2.71981 6.45278 2.76875 6.875V15.625C2.71981 16.0472 2.76698 16.475 2.90672 16.8764C3.04646 17.2779 3.27516 17.6425 3.57572 17.943C3.87627 18.2436 4.24089 18.4723 4.6423 18.612C5.04372 18.7518 5.47153 18.7989 5.89375 18.75H15.8937C16.316 18.7989 16.7438 18.7518 17.1452 18.612C17.5466 18.4723 17.9112 18.2436 18.2118 17.943C18.5123 17.6425 18.741 17.2779 18.8808 16.8764C19.0205 16.475 19.0677 16.0472 19.0187 15.625V6.875C19.0677 6.45278 19.0205 6.02497 18.8808 5.62355C18.741 5.22214 18.5123 4.85752 18.2118 4.55697C17.9112 4.25642 17.5466 4.02772 17.1452 3.88797C16.7438 3.74823 16.316 3.70106 15.8937 3.75ZM5.89375 5H6.93541V5.625C6.93541 5.79076 7.00126 5.94973 7.11847 6.06694C7.23568 6.18415 7.39465 6.25 7.56041 6.25C7.72617 6.25 7.88515 6.18415 8.00236 6.06694C8.11957 5.94973 8.18541 5.79076 8.18541 5.625V5H13.6021V5.625C13.6021 5.79076 13.6679 5.94973 13.7851 6.06694C13.9023 6.18415 14.0613 6.25 14.2271 6.25C14.3928 6.25 14.5518 6.18415 14.669 6.06694C14.7862 5.94973 14.8521 5.79076 14.8521 5.625V5H15.8937C17.2079 5 17.7687 5.56083 17.7687 6.875V7.5H4.01875V6.875C4.01875 5.56083 4.57958 5 5.89375 5ZM15.8937 17.5H5.89375C4.57958 17.5 4.01875 16.9392 4.01875 15.625V8.75H17.7687V15.625C17.7687 16.9392 17.2079 17.5 15.8937 17.5Z" fill="#555555"/>
<path d="M13.75 12.5C13.75 14.1569 12.4069 15.5 10.75 15.5M13.75 12.5C13.75 10.8431 12.4069 9.5 10.75 9.5M13.75 12.5C12.0931 12.5 10.75 11.1569 10.75 9.5M10.75 15.5C9.09315 15.5 7.75 14.1569 7.75 12.5M10.75 15.5C10.75 13.8431 9.4069 12.5 7.75 12.5M7.75 12.5C7.75 10.8431 9.09315 9.5 10.75 9.5M8.6287 14.6213L12.8713 10.3787M8.6287 10.3787L12.8713 14.6213" stroke="#555555" stroke-width="0.5" stroke-miterlimit="10" stroke-linecap="round" stroke-linejoin="round"/>
</svg>
