<svg width="14" height="14" viewBox="0 0 14 14" fill="none" xmlns="http://www.w3.org/2000/svg">
<g clip-path="url(#clip0_11435_6847)">
<path fill-rule="evenodd" clip-rule="evenodd" d="M4.8125 0.875C4.92853 0.875 5.03981 0.921094 5.12186 1.00314C5.20391 1.08519 5.25 1.19647 5.25 1.3125V1.75H7.4375C7.55353 1.75 7.66481 1.79609 7.74686 1.87814C7.82891 1.96019 7.875 2.07147 7.875 2.1875C7.875 2.30353 7.82891 2.41481 7.74686 2.49686C7.66481 2.57891 7.55353 2.625 7.4375 2.625H5.25V3.0625C5.25 3.17853 5.20391 3.28981 5.12186 3.37186C5.03981 3.45391 4.92853 3.5 4.8125 3.5C4.69647 3.5 4.58519 3.45391 4.50314 3.37186C4.42109 3.28981 4.375 3.17853 4.375 3.0625V2.625H3.5C3.03587 2.625 2.59075 2.80937 2.26256 3.13756C1.93437 3.46575 1.75 3.91087 1.75 4.375V10.5C1.75 10.9641 1.93437 11.4092 2.26256 11.7374C2.59075 12.0656 3.03587 12.25 3.5 12.25H6.125C6.24103 12.25 6.35231 12.2961 6.43436 12.3781C6.51641 12.4602 6.5625 12.5715 6.5625 12.6875C6.5625 12.8035 6.51641 12.9148 6.43436 12.9969C6.35231 13.0789 6.24103 13.125 6.125 13.125H3.5C2.80381 13.125 2.13613 12.8484 1.64384 12.3562C1.15156 11.8639 0.875 11.1962 0.875 10.5V4.375C0.875 3.67881 1.15156 3.01113 1.64384 2.51884C2.13613 2.02656 2.80381 1.75 3.5 1.75H4.375V1.3125C4.375 1.19647 4.42109 1.08519 4.50314 1.00314C4.58519 0.921094 4.69647 0.875 4.8125 0.875ZM9.1875 0.875C9.30353 0.875 9.41481 0.921094 9.49686 1.00314C9.57891 1.08519 9.625 1.19647 9.625 1.3125V1.75H10.5C11.1962 1.75 11.8639 2.02656 12.3562 2.51884C12.8484 3.01113 13.125 3.67881 13.125 4.375V6.125C13.125 6.24103 13.0789 6.35231 12.9969 6.43436C12.9148 6.51641 12.8035 6.5625 12.6875 6.5625C12.5715 6.5625 12.4602 6.51641 12.3781 6.43436C12.2961 6.35231 12.25 6.24103 12.25 6.125V4.375C12.25 3.91087 12.0656 3.46575 11.7374 3.13756C11.4092 2.80937 10.9641 2.625 10.5 2.625H9.625V3.0625C9.625 3.17853 9.57891 3.28981 9.49686 3.37186C9.41481 3.45391 9.30353 3.5 9.1875 3.5C9.07147 3.5 8.96019 3.45391 8.87814 3.37186C8.79609 3.28981 8.75 3.17853 8.75 3.0625V1.3125C8.75 1.19647 8.79609 1.08519 8.87814 1.00314C8.96019 0.921094 9.07147 0.875 9.1875 0.875ZM3.5 4.8125C3.38397 4.8125 3.27269 4.85859 3.19064 4.94064C3.10859 5.02269 3.0625 5.13397 3.0625 5.25C3.0625 5.36603 3.10859 5.47731 3.19064 5.55936C3.27269 5.64141 3.38397 5.6875 3.5 5.6875H10.5C10.616 5.6875 10.7273 5.64141 10.8094 5.55936C10.8914 5.47731 10.9375 5.36603 10.9375 5.25C10.9375 5.13397 10.8914 5.02269 10.8094 4.94064C10.7273 4.85859 10.616 4.8125 10.5 4.8125H3.5ZM11.2468 9.93431L10.1531 11.0281C10.071 11.1101 9.95976 11.1562 9.84375 11.1562C9.72774 11.1562 9.61648 11.1101 9.53444 11.0281L8.87819 10.3718C8.79849 10.2893 8.7544 10.1788 8.75539 10.0641C8.75639 9.94936 8.8024 9.83963 8.88352 9.75852C8.96463 9.6774 9.07436 9.63139 9.18907 9.63039C9.30379 9.6294 9.4143 9.67349 9.49681 9.75319L9.84375 10.1001L10.6282 9.31569C10.7107 9.23599 10.8212 9.1919 10.9359 9.19289C11.0506 9.19389 11.1604 9.2399 11.2415 9.32102C11.3226 9.40213 11.3686 9.51186 11.3696 9.62657C11.3706 9.74129 11.3265 9.8518 11.2468 9.93431ZM4.375 7.65625C4.375 7.8303 4.30586 7.99722 4.18279 8.12029C4.05972 8.24336 3.8928 8.3125 3.71875 8.3125C3.5447 8.3125 3.37778 8.24336 3.25471 8.12029C3.13164 7.99722 3.0625 7.8303 3.0625 7.65625C3.0625 7.4822 3.13164 7.31528 3.25471 7.19221C3.37778 7.06914 3.5447 7 3.71875 7C3.8928 7 4.05972 7.06914 4.18279 7.19221C4.30586 7.31528 4.375 7.4822 4.375 7.65625ZM3.71875 10.9375C3.80493 10.9375 3.89027 10.9205 3.96989 10.8875C4.04951 10.8546 4.12185 10.8062 4.18279 10.7453C4.24373 10.6844 4.29207 10.612 4.32505 10.5324C4.35803 10.4528 4.375 10.3674 4.375 10.2812C4.375 10.1951 4.35803 10.1097 4.32505 10.0301C4.29207 9.95049 4.24373 9.87815 4.18279 9.81721C4.12185 9.75627 4.04951 9.70793 3.96989 9.67495C3.89027 9.64197 3.80493 9.625 3.71875 9.625C3.5447 9.625 3.37778 9.69414 3.25471 9.81721C3.13164 9.94028 3.0625 10.1072 3.0625 10.2812C3.0625 10.4553 3.13164 10.6222 3.25471 10.7453C3.37778 10.8684 3.5447 10.9375 3.71875 10.9375ZM7.875 10.0625C7.875 9.48234 8.10547 8.92594 8.5157 8.5157C8.92594 8.10547 9.48234 7.875 10.0625 7.875C10.6427 7.875 11.1991 8.10547 11.6093 8.5157C12.0195 8.92594 12.25 9.48234 12.25 10.0625C12.25 10.6427 12.0195 11.1991 11.6093 11.6093C11.1991 12.0195 10.6427 12.25 10.0625 12.25C9.48234 12.25 8.92594 12.0195 8.5157 11.6093C8.10547 11.1991 7.875 10.6427 7.875 10.0625ZM10.0625 7C9.25027 7 8.47132 7.32266 7.89699 7.89699C7.32266 8.47132 7 9.25027 7 10.0625C7 10.8747 7.32266 11.6537 7.89699 12.228C8.47132 12.8023 9.25027 13.125 10.0625 13.125C10.8747 13.125 11.6537 12.8023 12.228 12.228C12.8023 11.6537 13.125 10.8747 13.125 10.0625C13.125 9.25027 12.8023 8.47132 12.228 7.89699C11.6537 7.32266 10.8747 7 10.0625 7Z" fill="#555555"/>
</g>
<defs>
<clipPath id="clip0_11435_6847">
<rect width="14" height="14" fill="white"/>
</clipPath>
</defs>
</svg>
