<svg width="21" height="21" viewBox="0 0 21 21" fill="none" xmlns="http://www.w3.org/2000/svg">
<path d="M3.15313 17.3813H11.2175C11.3833 17.3813 11.5422 17.3155 11.6594 17.1983C11.7767 17.0811 11.8425 16.9221 11.8425 16.7563C11.8425 16.5906 11.7767 16.4316 11.6594 16.3144C11.5422 16.1972 11.3833 16.1313 11.2175 16.1313H3.15313C3.04643 16.1313 2.94408 16.089 2.86851 16.0137C2.79295 15.9384 2.75033 15.8362 2.75 15.7295V8.12071H16.9094V10.4395C16.9094 10.6052 16.9752 10.7642 17.0924 10.8814C17.2096 10.9986 17.3686 11.0645 17.5344 11.0645C17.7001 11.0645 17.8591 10.9986 17.9763 10.8814C18.0935 10.7642 18.1594 10.6052 18.1594 10.4395V5.43634C18.1589 4.99833 17.9847 4.57839 17.675 4.26861C17.3654 3.95883 16.9455 3.7845 16.5075 3.78384H14.8206V3.40259C14.8206 3.23683 14.7548 3.07786 14.6376 2.96065C14.5204 2.84344 14.3614 2.77759 14.1956 2.77759C14.0299 2.77759 13.8709 2.84344 13.7537 2.96065C13.6365 3.07786 13.5706 3.23683 13.5706 3.40259V3.78384H6.08875V3.40259C6.08875 3.23683 6.0229 3.07786 5.90569 2.96065C5.78848 2.84344 5.62951 2.77759 5.46375 2.77759C5.29799 2.77759 5.13902 2.84344 5.02181 2.96065C4.9046 3.07786 4.83875 3.23683 4.83875 3.40259V3.78384H3.1525C2.71438 3.78433 2.29435 3.9586 1.98455 4.26839C1.67476 4.57819 1.5005 4.99822 1.5 5.43634V15.7288C1.5005 16.1671 1.67482 16.5873 1.98474 16.8972C2.29465 17.2071 2.71484 17.3808 3.15313 17.3813ZM2.75 6.87134V5.43821C2.75 5.21696 2.93125 5.03634 3.15313 5.03634H4.83875V5.41571C4.83875 5.49779 4.85492 5.57906 4.88633 5.65489C4.91773 5.73072 4.96377 5.79962 5.02181 5.85765C5.07984 5.91569 5.14874 5.96173 5.22457 5.99314C5.3004 6.02455 5.38167 6.04071 5.46375 6.04071C5.54583 6.04071 5.6271 6.02455 5.70293 5.99314C5.77876 5.96173 5.84765 5.91569 5.90569 5.85765C5.96373 5.79962 6.00977 5.73072 6.04117 5.65489C6.07258 5.57906 6.08875 5.49779 6.08875 5.41571V5.03634H13.5706V5.41571C13.5706 5.58147 13.6365 5.74044 13.7537 5.85765C13.8709 5.97486 14.0299 6.04071 14.1956 6.04071C14.3614 6.04071 14.5204 5.97486 14.6376 5.85765C14.7548 5.74044 14.8206 5.58147 14.8206 5.41571V5.03634H16.5069C16.7288 5.03634 16.9094 5.21696 16.9094 5.43821V6.87071L2.75 6.87134Z" fill="#555555"/>
<path d="M18.3751 14.3543H16.3813V12.3606C16.3813 12.1948 16.3155 12.0359 16.1983 11.9187C16.081 11.8014 15.9221 11.7356 15.7563 11.7356C15.5905 11.7356 15.4316 11.8014 15.3144 11.9187C15.1972 12.0359 15.1313 12.1948 15.1313 12.3606V14.3543H13.1382C12.9724 14.3543 12.8135 14.4202 12.6962 14.5374C12.579 14.6546 12.5132 14.8136 12.5132 14.9793C12.5132 15.1451 12.579 15.3041 12.6962 15.4213C12.8135 15.5385 12.9724 15.6043 13.1382 15.6043H15.1319V17.5981C15.1319 17.7639 15.1978 17.9228 15.315 18.04C15.4322 18.1572 15.5912 18.2231 15.7569 18.2231C15.9227 18.2231 16.0817 18.1572 16.1989 18.04C16.3161 17.9228 16.3819 17.7639 16.3819 17.5981V15.6043H18.3751C18.5408 15.6043 18.6998 15.5385 18.817 15.4213C18.9342 15.3041 19.0001 15.1451 19.0001 14.9793C19.0001 14.8136 18.9342 14.6546 18.817 14.5374C18.6998 14.4202 18.5408 14.3543 18.3751 14.3543Z" fill="#555555"/>
</svg>
