<svg width="24" height="24" viewBox="0 0 24 24" fill="none" xmlns="http://www.w3.org/2000/svg">
<path d="M10.1251 22.125C9.92614 22.125 9.73538 22.046 9.59472 21.9053C9.45407 21.7647 9.37505 21.5739 9.37505 21.375V14.1637L2.42255 6.5175C2.14887 6.21591 1.96861 5.84136 1.90365 5.43931C1.83868 5.03727 1.89182 4.62501 2.05659 4.25257C2.22137 3.88013 2.49071 3.56353 2.83192 3.34119C3.17313 3.11885 3.57154 3.00032 3.9788 3H20.0213C20.4286 3.00032 20.827 3.11885 21.1682 3.34119C21.5094 3.56353 21.7787 3.88013 21.9435 4.25257C22.1083 4.62501 22.1614 5.03727 22.0965 5.43931C22.0315 5.84136 21.8512 6.21591 21.5776 6.5175L14.6251 14.1637V18.375C14.625 18.4873 14.5997 18.5982 14.551 18.6995C14.5023 18.8008 14.4315 18.8898 14.3438 18.96L10.5938 21.96C10.4608 22.0667 10.2955 22.1249 10.1251 22.125ZM3.9788 4.5C3.8621 4.50029 3.74798 4.5344 3.65025 4.5982C3.55253 4.66201 3.47539 4.75276 3.42818 4.85949C3.38096 4.96622 3.36569 5.08435 3.38422 5.19958C3.40274 5.31481 3.45426 5.4222 3.53255 5.50875L10.6801 13.3837C10.8025 13.5184 10.8718 13.693 10.8751 13.875V19.815L13.1251 18V13.875C13.1246 13.6878 13.1942 13.5073 13.3201 13.3688L20.4676 5.49375C20.5412 5.40681 20.5887 5.30081 20.6046 5.188C20.6206 5.07519 20.6043 4.96018 20.5576 4.85625C20.5109 4.75232 20.4358 4.66372 20.3409 4.60068C20.246 4.53764 20.1352 4.50273 20.0213 4.5H3.9788Z" fill="#002868"/>
</svg>
