<svg width="20" height="19" viewBox="0 0 20 19" fill="none" xmlns="http://www.w3.org/2000/svg">
<path d="M5.6875 13.875C5.6875 13.7092 5.75335 13.5503 5.87056 13.4331C5.98777 13.3158 6.14674 13.25 6.3125 13.25H13.1875C13.3533 13.25 13.5122 13.3158 13.6294 13.4331C13.7467 13.5503 13.8125 13.7092 13.8125 13.875C13.8125 14.0408 13.7467 14.1997 13.6294 14.3169C13.5122 14.4342 13.3533 14.5 13.1875 14.5H6.3125C6.14674 14.5 5.98777 14.4342 5.87056 14.3169C5.75335 14.1997 5.6875 14.0408 5.6875 13.875Z" fill="#555555"/>
<path fill-rule="evenodd" clip-rule="evenodd" d="M12.45 1.04692C10.8647 -0.182144 8.63531 -0.182144 7.05 1.04692L2.05 4.92442C1.52955 5.32638 1.10801 5.84214 0.817681 6.43218C0.527347 7.02221 0.37592 7.67088 0.375 8.32848V14.5488C0.375 16.9457 2.34156 18.875 4.75 18.875H14.75C17.1584 18.875 19.125 16.946 19.125 14.5488V8.32848C19.125 6.99786 18.5059 5.74348 17.45 4.92442L12.45 1.04692ZM7.81594 2.03473C8.36983 1.60704 9.04989 1.37505 9.74969 1.37505C10.4495 1.37505 11.1295 1.60704 11.6834 2.03473L16.6834 5.91223C17.0533 6.19727 17.353 6.56319 17.5595 6.98196C17.766 7.40074 17.874 7.86123 17.875 8.32817V14.5485C17.875 16.24 16.4837 17.625 14.75 17.625H4.75C3.01625 17.625 1.625 16.24 1.625 14.5488V8.32848C1.625 7.38786 2.0625 6.49661 2.81625 5.91223L7.81594 2.03473Z" fill="#555555"/>
</svg>
