<svg width="12" height="17" viewBox="0 0 12 17" fill="none" xmlns="http://www.w3.org/2000/svg">
<path d="M6.00004 0.833374C2.80488 0.833374 0.205444 3.43281 0.205444 6.62794C0.205444 10.5932 5.39104 16.4144 5.61182 16.6603C5.81919 16.8913 6.18126 16.8908 6.38826 16.6603C6.60904 16.4144 11.7946 10.5932 11.7946 6.62794C11.7946 3.43281 9.19516 0.833374 6.00004 0.833374ZM6.00004 15.5124C4.25482 13.4393 1.24894 9.34937 1.24894 6.628C1.24894 4.00819 3.38026 1.87687 6.00004 1.87687C8.61982 1.87687 10.7511 4.00819 10.7511 6.62797C10.7511 9.34947 7.74569 13.4387 6.00004 15.5124Z" fill="#555555"/>
<path d="M6.00009 3.71252C4.39253 3.71252 3.08472 5.02037 3.08472 6.62793C3.08472 8.23549 4.39256 9.54334 6.00009 9.54334C7.60762 9.54334 8.91544 8.23549 8.91544 6.62793C8.91544 5.02037 7.60762 3.71252 6.00009 3.71252ZM6.00009 8.49984C4.9679 8.49984 4.12822 7.66012 4.12822 6.62793C4.12822 5.59574 4.96794 4.75602 6.00009 4.75602C7.03225 4.75602 7.87197 5.59574 7.87197 6.62793C7.87197 7.66012 7.03225 8.49984 6.00009 8.49984Z" fill="#555555"/>
</svg>
