<svg width="20" height="20" viewBox="0 0 20 20" fill="none" xmlns="http://www.w3.org/2000/svg">
<path d="M10.0002 0.588379C7.05905 0.588379 4.70611 2.94132 4.70611 5.8825V8.23544C3.70611 8.23544 2.94141 9.00014 2.94141 10.0001V17.6472C2.94141 18.6472 3.70611 19.4119 4.70611 19.4119H15.2943C16.2943 19.4119 17.0591 18.6472 17.0591 17.6472V10.0001C17.0591 9.00014 16.2943 8.23544 15.2943 8.23544V5.8825C15.2943 2.94132 12.9414 0.588379 10.0002 0.588379ZM15.8826 10.0001V17.6472C15.8826 18.0001 15.6473 18.2354 15.2943 18.2354H4.70611C4.35317 18.2354 4.11788 18.0001 4.11788 17.6472V10.0001C4.11788 9.6472 4.35317 9.41191 4.70611 9.41191H15.2943C15.6473 9.41191 15.8826 9.6472 15.8826 10.0001ZM5.88258 8.23544V5.8825C5.88258 3.58838 7.70611 1.76485 10.0002 1.76485C12.2943 1.76485 14.1179 3.58838 14.1179 5.8825V8.23544H5.88258Z" fill="#002868"/>
<path d="M10.0001 11.1768C9.00006 11.1768 8.23535 11.9415 8.23535 12.9415C8.23535 13.7062 8.70594 14.3532 9.41182 14.5885V15.8826C9.41182 16.2356 9.64712 16.4709 10.0001 16.4709C10.353 16.4709 10.5883 16.2356 10.5883 15.8826V14.5885C11.2942 14.3532 11.7648 13.7062 11.7648 12.9415C11.7648 11.9415 11.0001 11.1768 10.0001 11.1768ZM10.0001 13.5297C9.64712 13.5297 9.41182 13.2944 9.41182 12.9415C9.41182 12.5885 9.64712 12.3532 10.0001 12.3532C10.353 12.3532 10.5883 12.5885 10.5883 12.9415C10.5883 13.2944 10.353 13.5297 10.0001 13.5297Z" fill="#002868"/>
</svg>
