<svg width="20" height="20" viewBox="0 0 20 20" fill="none" xmlns="http://www.w3.org/2000/svg">
<path d="M1.66628 10L1.01628 9.47917L0.599609 10L1.01628 10.5208L1.66628 10ZM9.16628 10.8333C9.38729 10.8333 9.59925 10.7455 9.75553 10.5893C9.91181 10.433 9.99961 10.221 9.99961 10C9.99961 9.77899 9.91181 9.56702 9.75553 9.41074C9.59925 9.25446 9.38729 9.16667 9.16628 9.16667V10.8333ZM4.34961 5.3125L1.01628 9.47917L2.31628 10.5208L5.64961 6.35417L4.34961 5.3125ZM1.01628 10.5208L4.34961 14.6875L5.64961 13.6458L2.31628 9.47917L1.01628 10.5208ZM1.66628 10.8333H9.16628V9.16667H1.66628V10.8333Z" fill="#002868"/>
<path d="M8.33301 6.77665V6.15749C8.33301 4.80832 8.33301 4.13415 8.72801 3.66832C9.12301 3.20249 9.78801 3.09082 11.118 2.86832L12.5113 2.63665C15.2138 2.18665 16.5647 1.96165 17.4488 2.70999C18.333 3.45915 18.333 4.82915 18.333 7.56832V12.4308C18.333 15.1708 18.333 16.5408 17.4497 17.2892C16.5647 18.0392 15.2138 17.8142 12.5113 17.3633L11.118 17.1308C9.78801 16.9092 9.12301 16.7983 8.72801 16.3325C8.33301 15.8658 8.33301 15.1908 8.33301 13.8417V13.3875" stroke="#002868" stroke-width="2"/>
</svg>
