<svg width="20" height="20" viewBox="0 0 20 20" fill="none" xmlns="http://www.w3.org/2000/svg">
<g clip-path="url(#clip0_11453_9243)">
<path d="M13.3332 7.49996H12.5832C12.5832 8.92669 11.4266 10.0833 9.99984 10.0833V10.8333V11.5833C12.255 11.5833 14.0832 9.75512 14.0832 7.49996H13.3332ZM9.99984 10.8333V10.0833C8.5731 10.0833 7.4165 8.92669 7.4165 7.49996H6.6665H5.9165C5.9165 9.75512 7.74467 11.5833 9.99984 11.5833V10.8333ZM6.6665 7.49996H7.4165C7.4165 6.07322 8.5731 4.91663 9.99984 4.91663V4.16663V3.41663C7.74467 3.41663 5.9165 5.2448 5.9165 7.49996H6.6665ZM9.99984 4.16663V4.91663C11.4266 4.91663 12.5832 6.07322 12.5832 7.49996H13.3332H14.0832C14.0832 5.2448 12.255 3.41663 9.99984 3.41663V4.16663ZM7.49984 13.3333V14.0833H12.4998V13.3333V12.5833H7.49984V13.3333ZM1.6665 9.99996H2.4165C2.4165 5.8118 5.81168 2.41663 9.99984 2.41663V1.66663V0.916626C4.98325 0.916626 0.916504 4.98337 0.916504 9.99996H1.6665ZM9.99984 1.66663V2.41663C14.188 2.41663 17.5832 5.8118 17.5832 9.99996H18.3332H19.0832C19.0832 4.98337 15.0164 0.916626 9.99984 0.916626V1.66663ZM18.3332 9.99996H17.5832C17.5832 12.1506 16.6889 14.0911 15.2499 15.4721L15.7692 16.0132L16.2885 16.5544C18.01 14.9022 19.0832 12.5758 19.0832 9.99996H18.3332ZM15.7692 16.0132L15.2499 15.4721C13.8866 16.7804 12.0378 17.5833 9.99984 17.5833V18.3333V19.0833C12.4402 19.0833 14.6571 18.1199 16.2885 16.5544L15.7692 16.0132ZM12.4998 13.3333V14.0833C13.7524 14.0833 14.7983 14.9755 15.0335 16.1594L15.7692 16.0132L16.5048 15.867C16.1327 13.9948 14.4819 12.5833 12.4998 12.5833V13.3333ZM9.99984 18.3333V17.5833C7.96191 17.5833 6.11308 16.7804 4.74982 15.4721L4.23051 16.0132L3.71121 16.5544C5.34257 18.1199 7.55949 19.0833 9.99984 19.0833V18.3333ZM4.23051 16.0132L4.74982 15.4721C3.31079 14.0911 2.4165 12.1506 2.4165 9.99996H1.6665H0.916504C0.916504 12.5758 1.98965 14.9022 3.71121 16.5544L4.23051 16.0132ZM7.49984 13.3333V12.5833C5.51775 12.5833 3.867 13.9948 3.4949 15.867L4.23051 16.0132L4.96613 16.1594C5.20142 14.9755 6.24727 14.0833 7.49984 14.0833V13.3333Z" fill="#002868"/>
</g>
<defs>
<clipPath id="clip0_11453_9243">
<rect width="20" height="20" fill="white"/>
</clipPath>
</defs>
</svg>
