<svg width="24" height="24" viewBox="0 0 24 24" fill="none" xmlns="http://www.w3.org/2000/svg">
<path d="M8.35194 20.242C9.19194 21.31 10.5139 22 11.9999 22C13.4859 22 14.8069 21.311 15.6479 20.242C13.227 20.5702 10.7729 20.5702 8.35194 20.242ZM18.7499 9V9.704C18.7499 10.549 18.9899 11.375 19.4419 12.078L20.5499 13.801C21.5609 15.375 20.7889 17.514 19.0299 18.011C14.4337 19.313 9.56618 19.313 4.96994 18.011C3.21094 17.514 2.43894 15.375 3.44994 13.801L4.55794 12.078C5.00994 11.375 5.25094 10.549 5.25094 9.704V9C5.25094 5.134 8.27294 2 11.9999 2C15.7269 2 18.7499 5.134 18.7499 9Z" fill="#002868"/>
</svg>
