<svg width="20" height="20" viewBox="0 0 20 20" fill="none" xmlns="http://www.w3.org/2000/svg">
<path d="M2.93945 14.707H17.0605M2.93945 14.707V17.0605H17.0605V14.707M2.93945 14.707L0.585938 5.29297L4.85184 8.7057C4.75454 8.92832 4.70441 9.16869 4.70461 9.41164C4.70461 10.3865 5.49492 11.1768 6.46977 11.1768C7.44461 11.1768 8.23488 10.3865 8.23488 9.41164C8.23488 8.81504 7.93863 8.28801 7.48551 7.96848L10 2.93945L12.5145 7.96844C12.0613 8.28797 11.7651 8.81504 11.7651 9.4116C11.7651 10.3865 12.5554 11.1768 13.5302 11.1768C14.5051 11.1768 15.2954 10.3864 15.2954 9.4116C15.2956 9.16865 15.2455 8.92828 15.1482 8.70566L19.4141 5.29297L17.0605 14.707" stroke="#002868" stroke-miterlimit="10" stroke-linejoin="round"/>
</svg>
