<svg width="21" height="21" viewBox="0 0 21 21" fill="none" xmlns="http://www.w3.org/2000/svg">
<g clip-path="url(#clip0_11409_7036)">
<path d="M14.01 19.9H6.48998C4.99463 19.8984 3.56098 19.3037 2.50361 18.2463C1.44624 17.189 0.851531 15.7553 0.849976 14.26V6.73998C0.851531 5.24463 1.44624 3.81098 2.50361 2.75361C3.56098 1.69624 4.99463 1.10153 6.48998 1.09998L14.01 1.09998C15.5053 1.10153 16.939 1.69624 17.9963 2.75361C19.0537 3.81098 19.6484 5.24463 19.65 6.73998V14.26C19.6484 15.7553 19.0537 17.189 17.9963 18.2463C16.939 19.3037 15.5053 19.8984 14.01 19.9ZM6.48998 2.35135C5.32652 2.35291 4.21116 2.81578 3.38847 3.63847C2.56578 4.46116 2.10291 5.57652 2.10135 6.73998V14.26C2.10291 15.4234 2.56578 16.5388 3.38847 17.3615C4.21116 18.1842 5.32652 18.647 6.48998 18.6486H14.01C15.1734 18.647 16.2888 18.1842 17.1115 17.3615C17.9342 16.5388 18.397 15.4234 18.3986 14.26V6.73998C18.397 5.57652 17.9342 4.46116 17.1115 3.63847C16.2888 2.81578 15.1734 2.35291 14.01 2.35135H6.48998Z" fill="#555555"/>
<path d="M10.2501 11.7513C9.50641 11.7513 8.77945 11.5308 8.16113 11.1177C7.5428 10.7045 7.06087 10.1173 6.77628 9.43022C6.4917 8.74317 6.41724 7.98715 6.56232 7.25779C6.7074 6.52842 7.0655 5.85845 7.59135 5.3326C8.11719 4.80676 8.78716 4.44865 9.51653 4.30357C10.2459 4.15849 11.0019 4.23295 11.689 4.51754C12.376 4.80212 12.9632 5.28405 13.3764 5.90238C13.7895 6.52071 14.0101 7.24767 14.0101 7.99132C14.0085 8.98806 13.6119 9.94353 12.9071 10.6483C12.2023 11.3531 11.2468 11.7498 10.2501 11.7513ZM10.2501 5.48857C9.75391 5.48857 9.26889 5.6357 8.85635 5.91135C8.44381 6.18701 8.12227 6.5788 7.9324 7.03719C7.74253 7.49558 7.69285 7.99998 7.78965 8.48661C7.88644 8.97323 8.12537 9.42023 8.4762 9.77107C8.82704 10.1219 9.27404 10.3608 9.76066 10.4576C10.2473 10.5544 10.7517 10.5047 11.2101 10.3149C11.6685 10.125 12.0603 9.80346 12.3359 9.39092C12.6116 8.97838 12.7587 8.49336 12.7587 7.9972C12.7587 7.33187 12.4944 6.69379 12.0239 6.22333C11.5535 5.75288 10.9154 5.48857 10.2501 5.48857ZM14.6446 15.5877C14.4879 15.588 14.3369 15.5293 14.2216 15.4232C13.4142 14.6708 12.3524 14.2511 11.2488 14.2482H9.25719C8.15358 14.2511 7.09179 14.6708 6.28445 15.4232C6.22433 15.4833 6.15266 15.5305 6.07377 15.5621C5.99488 15.5937 5.9104 15.6089 5.82545 15.6069C5.7405 15.6049 5.65683 15.5857 5.5795 15.5505C5.50218 15.5153 5.4328 15.4647 5.37556 15.4019C5.31832 15.3391 5.27441 15.2653 5.24648 15.1851C5.21855 15.1048 5.20718 15.0198 5.21305 14.935C5.21893 14.8502 5.24193 14.7675 5.28067 14.6919C5.31941 14.6162 5.37309 14.5493 5.43844 14.4949C6.47936 13.5372 7.84273 13.0066 9.25719 13.0086H11.2429C12.661 13.0083 14.027 13.5433 15.0676 14.5067C15.159 14.5925 15.2227 14.7037 15.2504 14.826C15.2781 14.9483 15.2686 15.0761 15.2231 15.193C15.1776 15.3098 15.0982 15.4104 14.9951 15.4818C14.892 15.5532 14.77 15.5921 14.6446 15.5936V15.5877Z" fill="#555555"/>
</g>
<defs>
<clipPath id="clip0_11409_7036">
<rect width="20" height="20" fill="white" transform="translate(0.25 0.5)"/>
</clipPath>
</defs>
</svg>
