<svg width="40" height="40" viewBox="0 0 40 40" fill="none" xmlns="http://www.w3.org/2000/svg">
<g clip-path="url(#clip0_11453_9242)">
<path d="M23.3332 17.5H22.5832C22.5832 18.9267 21.4266 20.0833 19.9998 20.0833V20.8333V21.5833C22.255 21.5833 24.0832 19.7551 24.0832 17.5H23.3332ZM19.9998 20.8333V20.0833C18.5731 20.0833 17.4165 18.9267 17.4165 17.5H16.6665H15.9165C15.9165 19.7551 17.7447 21.5833 19.9998 21.5833V20.8333ZM16.6665 17.5H17.4165C17.4165 16.0732 18.5731 14.9166 19.9998 14.9166V14.1666V13.4166C17.7447 13.4166 15.9165 15.2448 15.9165 17.5H16.6665ZM19.9998 14.1666V14.9166C21.4266 14.9166 22.5832 16.0732 22.5832 17.5H23.3332H24.0832C24.0832 15.2448 22.255 13.4166 19.9998 13.4166V14.1666ZM17.4998 23.3333V24.0833H22.4998V23.3333V22.5833H17.4998V23.3333ZM11.6665 20H12.4165C12.4165 15.8118 15.8117 12.4166 19.9998 12.4166V11.6666V10.9166C14.9833 10.9166 10.9165 14.9834 10.9165 20H11.6665ZM19.9998 11.6666V12.4166C24.188 12.4166 27.5832 15.8118 27.5832 20H28.3332H29.0832C29.0832 14.9834 25.0164 10.9166 19.9998 10.9166V11.6666ZM28.3332 20H27.5832C27.5832 22.1506 26.6889 24.0911 25.2499 25.4721L25.7692 26.0132L26.2885 26.5544C28.01 24.9022 29.0832 22.5758 29.0832 20H28.3332ZM25.7692 26.0132L25.2499 25.4721C23.8866 26.7804 22.0378 27.5833 19.9998 27.5833V28.3333V29.0833C22.4402 29.0833 24.6571 28.1199 26.2885 26.5544L25.7692 26.0132ZM22.4998 23.3333V24.0833C23.7524 24.0833 24.7983 24.9755 25.0335 26.1594L25.7692 26.0132L26.5048 25.867C26.1327 23.9948 24.4819 22.5833 22.4998 22.5833V23.3333ZM19.9998 28.3333V27.5833C17.9619 27.5833 16.1131 26.7804 14.7498 25.4721L14.2305 26.0132L13.7112 26.5544C15.3426 28.1199 17.5595 29.0833 19.9998 29.0833V28.3333ZM14.2305 26.0132L14.7498 25.4721C13.3108 24.0911 12.4165 22.1506 12.4165 20H11.6665H10.9165C10.9165 22.5758 11.9897 24.9022 13.7112 26.5544L14.2305 26.0132ZM17.4998 23.3333V22.5833C15.5178 22.5833 13.867 23.9948 13.4949 25.867L14.2305 26.0132L14.9661 26.1594C15.2014 24.9755 16.2473 24.0833 17.4998 24.0833V23.3333Z" fill="#002868"/>
</g>
<defs>
<clipPath id="clip0_11453_9242">
<rect width="20" height="20" fill="white" transform="translate(10 10)"/>
</clipPath>
</defs>
</svg>
