<svg width="21" height="21" viewBox="0 0 21 21" fill="none" xmlns="http://www.w3.org/2000/svg">
<path fill-rule="evenodd" clip-rule="evenodd" d="M13.5223 6.75043C13.267 6.11436 12.8879 5.53526 12.4072 5.04665C11.9266 4.55804 11.3537 4.16962 10.7219 3.90387C10.0901 3.63813 9.41185 3.50033 8.72643 3.49846C8.04101 3.49659 7.36202 3.63068 6.72877 3.89298C6.09551 4.15527 5.52057 4.54056 5.03722 5.02654C4.55386 5.51252 4.1717 6.08954 3.91284 6.72421C3.65398 7.35887 3.52357 8.03858 3.52915 8.72398C3.53474 9.40938 3.67621 10.0869 3.94537 10.7172C4.48138 11.9725 5.49089 12.9657 6.75475 13.4812C8.0186 13.9967 9.43477 13.9928 10.6958 13.4705C11.9568 12.9482 12.961 11.9495 13.4902 10.6914C14.0194 9.4332 14.0309 8.01707 13.5223 6.75043ZM7.4202 2.12938C8.28751 1.95687 9.18031 1.95687 10.0476 2.1294C10.9149 2.30192 11.7398 2.64359 12.475 3.13488C13.2103 3.62618 13.8416 4.25749 14.3329 4.99276C14.8241 5.72803 15.1658 6.55287 15.3383 7.42017C15.5108 8.28748 15.5108 9.18028 15.3383 10.0476C15.1658 10.9149 14.8241 11.7397 14.3328 12.475C13.8415 13.2103 13.2102 13.8415 12.4749 14.3328C11.7397 14.8241 10.9148 15.1658 10.0475 15.3383C8.2959 15.6867 6.47763 15.325 4.9927 14.3328C3.50777 13.3406 2.47781 11.7991 2.12941 10.0475C1.781 8.29588 2.14269 6.47761 3.13491 4.99267C4.12713 3.50774 5.66859 2.47778 7.4202 2.12938ZM14.1435 14.1435C14.2889 13.9983 14.4859 13.9168 14.6913 13.9168C14.8967 13.9168 15.0937 13.9983 15.2391 14.1435L17.793 16.6964C17.9299 16.8433 18.0045 17.0377 18.0009 17.2385C17.9974 17.4393 17.916 17.6309 17.774 17.773C17.632 17.915 17.4404 17.9963 17.2396 17.9999C17.0387 18.0034 16.8444 17.9289 16.6974 17.792L14.1435 15.2391C13.9983 15.0937 13.9168 14.8967 13.9168 14.6913C13.9168 14.4859 13.9983 14.2888 14.1435 14.1435Z" fill="#555555"/>
</svg>
