<svg width="20" height="20" viewBox="0 0 20 20" fill="none" xmlns="http://www.w3.org/2000/svg">
<path d="M10 5.89844C7.7384 5.89844 5.89844 7.7384 5.89844 10C5.89844 12.2616 7.7384 14.1016 10 14.1016C12.2616 14.1016 14.1016 12.2616 14.1016 10C14.1016 7.7384 12.2616 5.89844 10 5.89844ZM10 12.9297C8.38457 12.9297 7.07031 11.6154 7.07031 10C7.07031 8.38457 8.38457 7.07031 10 7.07031C11.6154 7.07031 12.9297 8.38457 12.9297 10C12.9297 11.6154 11.6154 12.9297 10 12.9297Z" fill="#002868"/>
<path d="M19.554 8.25914L17.262 7.69555C17.124 7.26053 16.9468 6.8389 16.7327 6.43582L17.8008 4.65562C17.868 4.54357 17.8959 4.41226 17.8799 4.28257C17.8639 4.15288 17.8051 4.03224 17.7127 3.93984L16.0554 2.28258C15.963 2.19018 15.8424 2.13131 15.7127 2.11535C15.583 2.09938 15.4517 2.12722 15.3396 2.19445C15.3248 2.20336 14.1374 2.91578 13.5573 3.26301C13.1565 3.05099 12.7375 2.87536 12.3053 2.73824C12.1323 2.03605 11.7408 0.44582 11.7408 0.44582C11.7094 0.318602 11.6364 0.205555 11.5333 0.124741C11.4301 0.0439261 11.3029 6.99733e-06 11.1719 0L8.82812 0C8.69709 4.1353e-07 8.56984 0.0439211 8.46671 0.124744C8.36357 0.205567 8.2905 0.318627 8.25918 0.445859C8.09801 1.10055 7.82855 2.19504 7.69473 2.73805C7.235 2.88388 6.79025 3.07331 6.36656 3.30375L5.39512 2.7209L4.5177 2.19445C4.40564 2.12723 4.27433 2.09939 4.14464 2.11536C4.01495 2.13133 3.89432 2.19018 3.80191 2.28258L2.14457 3.93984C2.05217 4.03224 1.99331 4.15288 1.97734 4.28257C1.96137 4.41226 1.98922 4.54357 2.05645 4.65562C2.06426 4.66871 2.75117 5.81359 3.19984 6.56457C3.01586 6.9281 2.86149 7.30587 2.73824 7.69422C1.95691 7.88859 0.463906 8.25477 0.446406 8.25906C0.319053 8.29029 0.205855 8.36333 0.124923 8.4665C0.0439914 8.56967 4.25797e-06 8.697 0 8.82812L0 11.1719C6.40127e-06 11.303 0.0439991 11.4303 0.124938 11.5335C0.205878 11.6367 0.319085 11.7097 0.446445 11.7409C0.46375 11.7452 1.9457 12.1086 2.73891 12.3048C2.87864 12.7474 3.05905 13.176 3.27781 13.5853L2.25461 15.2908C2.18738 15.4028 2.15954 15.5341 2.1755 15.6638C2.19147 15.7935 2.25033 15.9142 2.34273 16.0066L4.00004 17.6639C4.09243 17.7563 4.21307 17.8151 4.34276 17.8311C4.47246 17.8471 4.60377 17.8192 4.71582 17.752C4.73023 17.7433 5.86672 17.0614 6.42465 16.7275C6.8313 16.9441 7.25685 17.1231 7.69602 17.2623L8.25914 19.5537C8.29037 19.6811 8.3634 19.7942 8.46656 19.8751C8.56971 19.9561 8.69703 20 8.82812 20H11.1719C11.3029 20 11.4302 19.9561 11.5334 19.8752C11.6365 19.7944 11.7096 19.6813 11.7409 19.554L12.3044 17.2622C12.7539 17.1197 13.1889 16.935 13.6035 16.7104L15.3396 17.752C15.4517 17.8193 15.583 17.8471 15.7127 17.8311C15.8424 17.8152 15.963 17.7563 16.0554 17.6639L17.7127 16.0066C17.8051 15.9142 17.8639 15.7936 17.8799 15.6639C17.8959 15.5342 17.868 15.4029 17.8008 15.2908L16.7477 13.5357C16.9552 13.1414 17.1272 12.7295 17.2618 12.3048C17.9581 12.133 19.5349 11.7455 19.5539 11.7409C19.6812 11.7096 19.7943 11.6366 19.8752 11.5334C19.9561 11.4303 20 11.303 20 11.1719V8.82812C20 8.69707 19.9561 8.56979 19.8752 8.46664C19.7944 8.3635 19.6813 8.29044 19.554 8.25914ZM18.8281 10.7125C18.1516 10.8788 16.9249 11.1804 16.6906 11.239L16.6464 11.2501C16.5461 11.2762 16.4544 11.3285 16.3809 11.4016C16.3073 11.4747 16.2545 11.566 16.2277 11.6662C16.0797 12.2216 15.857 12.7545 15.5659 13.2501C15.5126 13.3409 15.4848 13.4443 15.4852 13.5495C15.4857 13.6548 15.5145 13.758 15.5686 13.8482L16.5605 15.5014L15.5503 16.5117L13.9119 15.5287C13.8204 15.4738 13.7157 15.4449 13.609 15.4451C13.5023 15.4454 13.3976 15.4747 13.3064 15.5301C12.7986 15.8381 12.2475 16.0727 11.6682 16.2275C11.5688 16.254 11.4782 16.3063 11.4054 16.3789C11.3327 16.4516 11.2803 16.5421 11.2536 16.6414C11.2314 16.7246 11.2098 16.8079 11.1888 16.8913L10.7125 18.8281H9.28758L8.8652 17.1077L8.75129 16.6521C8.72592 16.5506 8.67383 16.4577 8.60042 16.3832C8.52701 16.3086 8.43497 16.255 8.33387 16.2281C7.76543 16.0764 7.2206 15.847 6.71477 15.5466C6.62444 15.4929 6.52137 15.4646 6.41633 15.4645C6.31129 15.4643 6.20814 15.4924 6.1177 15.5459C5.99152 15.6204 5.05309 16.1831 4.50512 16.5118L3.49477 15.5014L4.45809 13.8958C4.51256 13.805 4.5414 13.7011 4.54156 13.5953C4.54171 13.4894 4.51316 13.3854 4.45895 13.2945C4.15488 12.7842 3.92437 12.2369 3.77398 11.6678C3.74719 11.5664 3.69368 11.4741 3.61905 11.4004C3.54441 11.3268 3.45137 11.2745 3.34965 11.2491C2.93023 11.1442 1.80418 10.8675 1.17184 10.7123V9.28758C1.8102 9.13074 2.95062 8.85012 3.35004 8.74906C3.45117 8.72346 3.54363 8.67133 3.61787 8.59805C3.69212 8.52478 3.74546 8.43301 3.77238 8.33223C3.91196 7.80994 4.11711 7.30743 4.38293 6.83668C4.4337 6.74675 4.45981 6.64501 4.45859 6.54175C4.45738 6.43848 4.42889 6.33738 4.37602 6.24867C4.09281 5.77344 3.59164 4.93707 3.29664 4.44508L4.30699 3.43469L4.79215 3.72578L6.05934 4.48605C6.15074 4.54069 6.2553 4.56938 6.36179 4.56905C6.46828 4.56871 6.57266 4.53936 6.66371 4.48414C7.18379 4.16865 7.74616 3.92885 8.33387 3.77195C8.43484 3.74502 8.52677 3.69157 8.60012 3.61714C8.67348 3.54272 8.72559 3.45002 8.75105 3.34867C8.76207 3.30488 9.10539 1.91059 9.2873 1.17188H10.7127C10.9047 1.95148 11.2448 3.3325 11.2488 3.34852C11.2742 3.44995 11.3263 3.54273 11.3997 3.61722C11.4731 3.69171 11.5651 3.74521 11.6662 3.77215C12.2287 3.92232 12.7682 4.14847 13.2697 4.44434C13.3601 4.49767 13.4632 4.52573 13.5682 4.52559C13.6731 4.52545 13.7761 4.4971 13.8664 4.44352C14.0308 4.34594 14.9946 3.76801 15.5502 3.43465L16.5605 4.44496L15.5529 6.1243C15.4985 6.2149 15.4697 6.31853 15.4694 6.4242C15.4691 6.52988 15.4974 6.63366 15.5513 6.72457C15.849 7.22685 16.0765 7.76757 16.2273 8.33164C16.2538 8.4308 16.3059 8.52126 16.3784 8.59396C16.4509 8.66665 16.5412 8.71904 16.6402 8.74586C16.7612 8.77863 16.8892 8.81059 16.8913 8.81113L18.8281 9.28742V10.7125Z" fill="#002868"/>
</svg>
