<svg width="22" height="22" viewBox="0 0 22 22" fill="none" xmlns="http://www.w3.org/2000/svg">
<path d="M21.2495 7.39129L16.2694 2.41126C15.8585 2.00035 15.4417 1.79199 15.0307 1.79199C14.4663 1.79199 13.8073 2.22125 13.8073 3.43104V5.1265C10.1891 5.28419 6.81029 6.76803 4.2332 9.345C1.50365 12.0743 0.000300813 15.7033 3.12812e-08 19.5633C-4.20963e-05 19.6986 0.0424679 19.8304 0.12151 19.9402C0.200552 20.0499 0.312119 20.132 0.440411 20.1748C0.568704 20.2177 0.707219 20.219 0.836339 20.1788C0.96546 20.1385 1.07864 20.0587 1.15986 19.9505C4.20277 15.9001 8.78414 13.5063 13.8073 13.3173V14.9866C13.8073 16.1964 14.4663 16.6257 15.0306 16.6257H15.0307C15.4417 16.6257 15.8586 16.4174 16.2694 16.0064L21.2494 11.0264C21.7335 10.5425 22 9.89697 22 9.20887C22 8.52073 21.7335 7.87525 21.2495 7.39129ZM20.338 10.1149L15.3579 15.095C15.2624 15.1905 15.1833 15.2508 15.125 15.2875C15.1096 15.2203 15.0963 15.1217 15.0963 14.9867V12.6607C15.0963 12.3048 14.8078 12.0162 14.4518 12.0162C11.5881 12.0162 8.85161 12.6723 6.31855 13.9663C4.50012 14.8952 2.83783 16.1457 1.43013 17.6349C2.36659 11.2886 7.84949 6.40155 14.4518 6.40155C14.8078 6.40155 15.0963 6.11297 15.0963 5.75702V3.43104C15.0963 3.29598 15.1096 3.19737 15.1249 3.13025C15.1833 3.16691 15.2624 3.22723 15.3579 3.32275L20.338 8.30283C20.5785 8.54333 20.7109 8.86508 20.7109 9.20887C20.7109 9.55262 20.5785 9.87437 20.338 10.1149Z" fill="#002868"/>
</svg>
