<svg width="18" height="19" viewBox="0 0 18 19" fill="none" xmlns="http://www.w3.org/2000/svg">
<g clip-path="url(#clip0_11435_8877)">
<path d="M14.9092 9.51944H13.9567V6.0594H13.9762C14.4799 6.0594 14.8898 5.64956 14.8898 5.14579V2.65767C14.8898 1.46792 13.9218 0.5 12.7321 0.5H5.26773C4.07799 0.5 3.11007 1.46792 3.11007 2.65767V5.14579C3.11007 5.64956 3.51991 6.0594 4.02367 6.0594H4.04311V9.51944H3.09063C2.75835 9.51944 2.48804 9.78975 2.48804 10.122V10.7441C2.48804 11.0763 2.75835 11.3467 3.09063 11.3467H3.39465L2.82953 17.8452C2.82239 17.9284 2.83258 18.0122 2.85946 18.0913C2.88634 18.1703 2.92933 18.243 2.9857 18.3046C3.04221 18.3661 3.11086 18.4152 3.18731 18.4488C3.26376 18.4825 3.34635 18.4999 3.42987 18.5H3.773C4.05443 18.5 4.30207 18.3004 4.36183 18.0254L5.13761 14.4568H12.8621L13.6379 18.0254C13.6978 18.3004 13.9454 18.5 14.2268 18.5H14.5699C14.7383 18.5 14.9002 18.4288 15.0141 18.3046C15.0705 18.243 15.1135 18.1704 15.1403 18.0913C15.1672 18.0122 15.1774 17.9284 15.1703 17.8452L14.6052 11.3467H14.9092C15.2415 11.3467 15.5118 11.0763 15.5118 10.7441V10.122C15.5118 9.78975 15.2415 9.51944 14.9092 9.51944ZM13.3736 9.51944H12.7127V6.0594H13.3736V9.51944ZM5.87033 9.51944V6.0594H12.1295V9.51944H5.87033ZM3.69322 5.14579V2.65767C3.69322 1.78947 4.39954 1.08315 5.26773 1.08315H12.7321C13.6003 1.08315 14.3066 1.78947 14.3066 2.65767V5.14579C14.3066 5.328 14.1584 5.47624 13.9762 5.47624H4.02367C3.84146 5.47624 3.69322 5.328 3.69322 5.14579ZM4.62627 6.0594H5.28717V9.51944H4.62627V6.0594ZM3.79197 17.9016C3.79101 17.9059 3.78861 17.9098 3.78516 17.9125C3.78171 17.9153 3.77742 17.9168 3.773 17.9168H3.42987C3.4275 17.9168 3.42132 17.9168 3.41556 17.9105C3.40981 17.9043 3.41031 17.8981 3.41051 17.8957L3.97998 11.3467H5.21696L3.79197 17.9016ZM12.186 11.3467L12.4649 12.6296H5.53482L5.81372 11.3467H12.186ZM5.26439 13.8737L5.40808 13.2127H12.5917L12.7354 13.8737H5.26439ZM14.5893 17.8957C14.5895 17.898 14.5901 17.9042 14.5843 17.9105C14.5785 17.9168 14.5723 17.9168 14.5699 17.9168H14.2268C14.2224 17.9169 14.218 17.9154 14.2146 17.9126C14.2111 17.9098 14.2087 17.9059 14.2078 17.9015L12.7828 11.3467H14.0199L14.5893 17.8957ZM14.9286 10.7441C14.9286 10.7492 14.9266 10.7542 14.9229 10.7578C14.9193 10.7615 14.9144 10.7635 14.9092 10.7635H3.09063C3.08547 10.7635 3.08053 10.7615 3.07688 10.7578C3.07324 10.7542 3.07119 10.7492 3.07119 10.7441V10.122C3.07119 10.1169 3.07324 10.1119 3.07688 10.1083C3.08053 10.1046 3.08547 10.1026 3.09063 10.1026H14.9092C14.9144 10.1026 14.9193 10.1046 14.9229 10.1083C14.9266 10.1119 14.9286 10.1169 14.9286 10.122V10.7441Z" fill="#002868"/>
</g>
<defs>
<clipPath id="clip0_11435_8877">
<rect width="18" height="18" fill="white" transform="translate(0 0.5)"/>
</clipPath>
</defs>
</svg>
