<svg width="18" height="19" viewBox="0 0 18 19" fill="none" xmlns="http://www.w3.org/2000/svg">
<path d="M13.2068 17.2012C12.9933 17.2014 12.783 17.1492 12.5943 17.0493L9.08822 15.2066C9.06105 15.1921 9.03072 15.1845 8.99991 15.1845C8.9691 15.1845 8.93877 15.1921 8.9116 15.2066L5.4061 17.0493C5.18887 17.1637 4.94397 17.2149 4.69914 17.1973C4.4543 17.1796 4.21928 17.0938 4.02068 16.9495C3.82208 16.8052 3.66783 16.6082 3.57538 16.3808C3.48292 16.1534 3.45596 15.9047 3.49754 15.6628L4.16691 11.7596C4.17205 11.729 4.16962 11.6976 4.15981 11.6682C4.15 11.6388 4.13313 11.6122 4.11066 11.5908L1.27679 8.82504C1.10084 8.65361 0.976416 8.43634 0.917621 8.19783C0.858825 7.95932 0.868005 7.70912 0.944121 7.47556C1.02024 7.242 1.16025 7.03443 1.34828 6.87636C1.53632 6.7183 1.76487 6.61606 2.00804 6.58122L5.92472 6.01254C5.9552 6.0081 5.98414 5.99631 6.00903 5.97818C6.03393 5.96004 6.05403 5.93612 6.0676 5.90847L7.81866 2.35629C7.92712 2.13608 8.09507 1.95064 8.30349 1.82096C8.51191 1.69129 8.75247 1.62256 8.99794 1.62256C9.24341 1.62256 9.48398 1.69129 9.6924 1.82096C9.90082 1.95064 10.0688 2.13608 10.1772 2.35629L11.9294 5.90735C11.9431 5.93491 11.9632 5.95876 11.9881 5.97687C12.013 5.99499 12.0419 6.00684 12.0723 6.01141L15.9923 6.58066C16.2354 6.61569 16.4638 6.71804 16.6517 6.87613C16.8396 7.03422 16.9795 7.24174 17.0556 7.47522C17.1317 7.70869 17.1409 7.9588 17.0822 8.19725C17.0236 8.43569 16.8993 8.65296 16.7236 8.82447L13.8869 11.5886C13.8645 11.61 13.8477 11.6366 13.8379 11.666C13.8281 11.6954 13.8256 11.7268 13.8307 11.7573L14.5 15.6605C14.5322 15.8491 14.523 16.0425 14.4728 16.2271C14.4227 16.4118 14.333 16.5833 14.2098 16.7297C14.0867 16.8761 13.9331 16.994 13.7598 17.075C13.5865 17.156 13.3976 17.1984 13.2063 17.199L13.2068 17.2012ZM8.99991 14.0591C9.21324 14.059 9.42335 14.1112 9.61191 14.211L13.1174 16.0532C13.1484 16.0709 13.184 16.079 13.2197 16.0765C13.2553 16.074 13.2894 16.061 13.3177 16.0391C13.3471 16.0189 13.37 15.9905 13.3835 15.9574C13.397 15.9243 13.4005 15.888 13.3936 15.8529L12.7237 11.9492C12.6879 11.7391 12.7036 11.5234 12.7694 11.3207C12.8352 11.118 12.9493 10.9343 13.1017 10.7853L15.9383 8.02066C15.9637 7.99586 15.9816 7.96448 15.99 7.93005C15.9984 7.89562 15.9971 7.85952 15.9861 7.82583C15.9751 7.79213 15.9549 7.76218 15.9278 7.73936C15.9006 7.71653 15.8677 7.70174 15.8326 7.69666L11.9131 7.12685C11.7021 7.09629 11.5017 7.01482 11.3292 6.88948C11.1567 6.76413 11.0173 6.59868 10.9231 6.40741L9.16866 2.85579C9.15295 2.824 9.12866 2.79724 9.09855 2.77854C9.06843 2.75983 9.03368 2.74991 8.99822 2.74991C8.96277 2.74991 8.92802 2.75983 8.8979 2.77854C8.86778 2.79724 8.8435 2.824 8.82779 2.85579L7.07672 6.40629C6.98244 6.59763 6.84298 6.76312 6.67039 6.88847C6.4978 7.01382 6.29728 7.09525 6.08616 7.12572L2.16722 7.69666C2.13207 7.70163 2.09902 7.71638 2.07184 7.73921C2.04466 7.76204 2.02444 7.79205 2.01347 7.82582C2.00251 7.85959 2.00125 7.89575 2.00984 7.9302C2.01842 7.96465 2.03651 7.99599 2.06204 8.02066L4.89816 10.7853C5.05057 10.9343 5.16458 11.118 5.23042 11.3207C5.29625 11.5234 5.31195 11.7391 5.27616 11.9492L4.60622 15.8529C4.60015 15.888 4.60404 15.9241 4.61745 15.957C4.63087 15.99 4.65327 16.0185 4.6821 16.0394C4.71094 16.0603 4.74506 16.0726 4.78057 16.0751C4.81608 16.0775 4.85156 16.0699 4.88297 16.0532L8.38791 14.2104C8.5766 14.111 8.78665 14.0591 8.99991 14.0591Z" fill="#002868"/>
</svg>
