<svg width="15" height="15" viewBox="0 0 15 15" fill="none" xmlns="http://www.w3.org/2000/svg">
<g clip-path="url(#clip0_11435_6870)">
<path d="M14.2969 5.43023C14.2521 5.2915 14.1675 5.16901 14.0536 5.07803C13.9397 4.98705 13.8015 4.93161 13.6563 4.91862L9.61552 4.55168L8.0177 0.811781C7.89985 0.537708 7.63154 0.360352 7.33344 0.360352C7.03533 0.360352 6.767 0.537735 6.6492 0.812465L5.05135 4.55171L1.00992 4.91862C0.864893 4.9319 0.726951 4.98746 0.613199 5.0784C0.499448 5.16935 0.41489 5.29168 0.370009 5.43023C0.277831 5.71374 0.362954 6.02467 0.587589 6.22068L3.64196 8.89934L2.74129 12.8667C2.67539 13.1585 2.7886 13.46 3.03065 13.635C3.16073 13.729 3.31295 13.7768 3.46644 13.7768C3.59879 13.7768 3.73004 13.7411 3.84789 13.6706L7.33344 11.5874L10.8177 13.6706C11.0727 13.824 11.3941 13.81 11.6356 13.635C11.7538 13.5494 11.8443 13.4309 11.8957 13.2943C11.9472 13.1578 11.9573 13.0091 11.9249 12.8667L11.0243 8.89934L14.0787 6.22122C14.1885 6.12526 14.2678 5.99913 14.3066 5.85851C14.3454 5.71788 14.342 5.56895 14.2969 5.43023Z" fill="#FFC107"/>
</g>
<defs>
<clipPath id="clip0_11435_6870">
<rect width="14" height="14" fill="white" transform="translate(0.333374 0.333374)"/>
</clipPath>
</defs>
</svg>
