<svg width="38" height="38" viewBox="0 0 38 38" fill="none" xmlns="http://www.w3.org/2000/svg">
<g clip-path="url(#clip0_11609_6717)">
<path d="M35.3317 16.5674C35.1964 12.437 33.4898 8.51398 30.5604 5.59907C27.4711 2.5092 23.3653 0.808105 19.0001 0.808105C10.1835 0.808105 2.97949 7.82564 2.66896 16.5674C1.98914 16.8686 1.41124 17.3604 1.0053 17.9833C0.599355 18.6062 0.382786 19.3335 0.381836 20.0771V24.3889C0.382936 25.4071 0.787899 26.3833 1.50787 27.1032C2.22784 27.8232 3.20402 28.2282 4.22221 28.2293C4.88099 28.2285 5.51256 27.9664 5.97839 27.5006C6.44422 27.0348 6.70627 26.4032 6.70705 25.7444V18.7209C6.70705 17.4343 5.72024 16.3851 4.46565 16.2604C4.92877 8.64442 11.2688 2.58936 19.0001 2.58936C22.8903 2.58936 26.5484 4.10579 29.3016 6.85901C31.8298 9.3872 33.3094 12.6825 33.5321 16.261C32.2787 16.3869 31.2936 17.4355 31.2936 18.7209V25.7438C31.2936 27.0412 32.2959 28.0969 33.5653 28.2067V29.9814C33.5642 30.9424 33.182 31.8637 32.5024 32.5431C31.8228 33.2226 30.9015 33.6047 29.9405 33.6057H27.2561C27.0752 33.078 26.7335 32.6203 26.2791 32.2968C25.8247 31.9733 25.2804 31.8002 24.7226 31.8019H21.9557C21.5585 31.8019 21.1773 31.8862 20.8282 32.0489C20.3607 32.2648 19.9648 32.61 19.687 33.0436C19.4093 33.4773 19.2614 33.9813 19.2607 34.4963C19.2607 35.2171 19.5416 35.894 20.0504 36.4004C20.2998 36.6519 20.5967 36.8512 20.9237 36.987C21.2508 37.1228 21.6016 37.1922 21.9557 37.1913H24.7226C25.8697 37.1913 26.8809 36.4497 27.2579 35.3869H29.9405C32.9217 35.3869 35.3466 32.962 35.3466 29.9814V27.8896C36.0224 27.5868 36.5963 27.0952 36.9993 26.4739C37.4023 25.8527 37.6172 25.1282 37.6183 24.3877V20.0759C37.6183 18.5119 36.6766 17.1653 35.3317 16.5674ZM4.92521 18.7209V25.7438C4.92521 26.1315 4.60993 26.4474 4.22162 26.4474C3.6757 26.4468 3.15231 26.2296 2.76629 25.8436C2.38027 25.4576 2.16312 24.9342 2.16249 24.3883V20.0765C2.16312 19.5306 2.38027 19.0072 2.76629 18.6212C3.15231 18.2351 3.6757 18.018 4.22162 18.0174C4.60993 18.0174 4.92521 18.3332 4.92521 18.7209ZM25.6162 34.6875C25.572 34.892 25.4592 35.0752 25.2966 35.2068C25.1339 35.3385 24.9312 35.4106 24.722 35.4113H21.9551C21.7117 35.4113 21.4831 35.3163 21.3086 35.1417C21.2236 35.0574 21.1562 34.957 21.1104 34.8464C21.0645 34.7358 21.041 34.6172 21.0414 34.4975C21.042 34.2554 21.1385 34.0234 21.3097 33.8522C21.481 33.6811 21.713 33.5848 21.9551 33.5843H24.722C24.9655 33.5843 25.1941 33.6787 25.368 33.8533C25.5402 34.0249 25.6352 34.254 25.6352 34.4975C25.6358 34.5628 25.6287 34.6281 25.6162 34.6875ZM35.837 24.3883C35.8364 24.9342 35.6192 25.4576 35.2332 25.8436C34.8472 26.2296 34.3238 26.4468 33.7779 26.4474C33.5913 26.4473 33.4125 26.3731 33.2806 26.2412C33.1486 26.1093 33.0745 25.9304 33.0743 25.7438V18.7209C33.0743 18.3332 33.3896 18.0174 33.7779 18.0174C34.3238 18.018 34.8472 18.2351 35.2332 18.6212C35.6192 19.0072 35.8364 19.5306 35.837 20.0765V24.3883Z" fill="#002868"/>
<path d="M24.767 24.6954C25.7676 24.6943 26.7269 24.2964 27.4344 23.5889C28.1419 22.8814 28.5398 21.9221 28.5409 20.9215V13.2319C28.5409 12.2261 28.1479 11.2784 27.4342 10.5648C26.7205 9.85107 25.7735 9.45801 24.767 9.45801H13.2329C12.2323 9.45911 11.273 9.85706 10.5655 10.5646C9.85804 11.2721 9.46008 12.2313 9.45898 13.2319V20.9215C9.46008 21.9221 9.85804 22.8814 10.5655 23.5889C11.273 24.2964 12.2323 24.6943 13.2329 24.6954H13.3035V26.688C13.3023 26.9314 13.3493 27.1725 13.4416 27.3976C13.534 27.6227 13.6699 27.8273 13.8417 27.9997C14.0134 28.1721 14.2175 28.3088 14.4422 28.4021C14.667 28.4953 14.9079 28.5431 15.1513 28.5429C15.3944 28.5434 15.6352 28.4949 15.8592 28.4004C16.0832 28.3058 16.2859 28.1671 16.4551 27.9925L19.77 24.6954H24.767ZM18.7755 23.173L15.1881 26.7409C15.172 26.7575 15.1602 26.77 15.1263 26.7551C15.0854 26.7385 15.0854 26.7118 15.0854 26.688V23.8048C15.0854 23.5686 14.9915 23.342 14.8245 23.175C14.6575 23.008 14.4309 22.9142 14.1947 22.9142H13.2335C12.7052 22.9135 12.1987 22.7034 11.8251 22.3298C11.4516 21.9563 11.2415 21.4498 11.2408 20.9215V13.2319C11.2415 12.7036 11.4516 12.1971 11.8251 11.8236C12.1987 11.45 12.7052 11.2399 13.2335 11.2393H24.7676C25.2985 11.2393 25.7978 11.4471 26.1754 11.8241C26.553 12.2017 26.7603 12.7017 26.7603 13.2319V20.9215C26.7596 21.4498 26.5495 21.9563 26.1759 22.3298C25.8024 22.7034 25.2959 22.9135 24.7676 22.9142H19.4037C19.168 22.9142 18.9424 23.0074 18.7755 23.173Z" fill="#002868"/>
<path d="M14.6733 15.9048C13.949 15.9048 13.3594 16.495 13.3594 17.2188C13.3594 17.9425 13.9496 18.5327 14.6733 18.5327C15.3983 18.5327 15.9885 17.9425 15.9885 17.2188C15.9885 16.495 15.3989 15.9048 14.6733 15.9048ZM18.9994 15.9048C18.275 15.9048 17.6854 16.495 17.6854 17.2188C17.6854 17.9425 18.2756 18.5327 18.9994 18.5327C19.725 18.5327 20.3146 17.9425 20.3146 17.2188C20.3146 16.495 19.725 15.9048 18.9994 15.9048ZM23.3255 15.9048C22.6011 15.9048 22.0115 16.495 22.0115 17.2188C22.0115 17.9425 22.6017 18.5327 23.3255 18.5327C24.0504 18.5327 24.6406 17.9425 24.6406 17.2188C24.6406 16.495 24.0504 15.9048 23.3255 15.9048Z" fill="#002868"/>
</g>
<defs>
<clipPath id="clip0_11609_6717">
<rect width="38" height="38" fill="white"/>
</clipPath>
</defs>
</svg>
