<svg width="18" height="19" viewBox="0 0 18 19" fill="none" xmlns="http://www.w3.org/2000/svg">
<g clip-path="url(#clip0_11608_9520)">
<path d="M16.1369 2.45254C16.1001 2.45103 16.0633 2.4508 16.0265 2.45183H14.6385V1.25905C14.6386 0.781934 14.1831 0.5 13.706 0.5H12.4265C11.9494 0.5 11.6024 0.781934 11.6024 1.25905V2.45179H6.39761V1.25905C6.39761 0.781934 6.05063 0.5 5.57351 0.5H4.29398C3.8169 0.5 3.36146 0.781934 3.36146 1.25905V2.45179H1.97354C1.08755 2.42709 0.349303 3.12533 0.324605 4.01127C0.323567 4.04805 0.323816 4.08491 0.325311 4.12168V16.6566C0.325311 17.6108 1.01927 18.5 1.9735 18.5H16.0265C16.9808 18.5 17.6747 17.6108 17.6747 16.6566V4.12168C17.711 3.23612 17.0225 2.48882 16.1369 2.45254ZM12.4265 1.36747H13.7711V3.75299H12.4265V1.36747ZM4.29402 1.36747H5.53018V3.75299H4.29402V1.36747ZM16.8073 16.6566C16.8073 17.1337 16.5037 17.6325 16.0265 17.6325H1.97354C1.49643 17.6325 1.19282 17.1337 1.19282 16.6566V7.43977H16.8073V16.6566ZM16.8073 4.12168V6.5723H1.19278V4.12168C1.15605 3.71613 1.45504 3.35757 1.86059 3.32084C1.89813 3.31744 1.93588 3.31693 1.9735 3.3193H3.36146V3.79641C3.36146 4.27353 3.81686 4.62051 4.29398 4.62051H5.57351C6.01651 4.63267 6.38544 4.28337 6.39761 3.84037C6.39802 3.82572 6.39802 3.81107 6.39761 3.79641V3.31926H11.6024V3.79637C11.5903 4.23936 11.9396 4.6083 12.3826 4.62047C12.3972 4.62088 12.4119 4.62088 12.4265 4.62047H13.7061C14.1832 4.62047 14.6386 4.27349 14.6386 3.79637V3.31926H16.0265C16.433 3.29365 16.7832 3.60236 16.8088 4.00878C16.8112 4.0464 16.8107 4.08414 16.8073 4.12168Z" fill="#002868"/>
<path d="M6.59284 13.3603L6.20248 15.5289C6.18703 15.622 6.20232 15.7175 6.24602 15.8011C6.35706 16.0133 6.61915 16.0954 6.83139 15.9843L8.78318 14.9651L10.735 15.9843L10.9301 16.0277C11.0243 16.0294 11.1161 15.9988 11.1904 15.941C11.254 15.8945 11.3037 15.8316 11.3343 15.759C11.3649 15.6864 11.3751 15.6069 11.3639 15.5289L10.9735 13.3602L12.5567 11.8422C12.6124 11.782 12.6516 11.7085 12.6706 11.6287C12.6896 11.5489 12.6877 11.4656 12.6651 11.3868C12.6364 11.3139 12.5894 11.2497 12.5286 11.2003C12.4678 11.1509 12.3953 11.118 12.3181 11.1048L10.1494 10.7795L9.17354 8.80602C9.13101 8.71819 9.06009 8.64727 8.97226 8.60474C8.75666 8.50035 8.49726 8.59046 8.39282 8.80602L7.41693 10.7795L5.24825 11.1048C5.17105 11.118 5.09856 11.1509 5.03778 11.2003C4.977 11.2497 4.92998 11.3139 4.90127 11.3868C4.87868 11.4656 4.87679 11.5489 4.89578 11.6287C4.91478 11.7085 4.95401 11.782 5.00969 11.8422L6.59284 13.3603ZM7.78562 11.6037C7.85257 11.5936 7.91576 11.5664 7.96899 11.5246C8.02222 11.4827 8.06365 11.4278 8.08922 11.3651L8.78318 9.97714L9.47714 11.3651C9.50272 11.4278 9.54415 11.4827 9.59738 11.5245C9.65061 11.5664 9.7138 11.5936 9.78074 11.6037L11.3205 11.8205L10.2145 12.8832C10.1637 12.9334 10.1254 12.995 10.1028 13.0628C10.0802 13.1306 10.0739 13.2028 10.0843 13.2735L10.3446 14.8133L8.97832 14.0759L8.78314 14.0326L8.58796 14.0759L7.22171 14.8133L7.48193 13.2735C7.4924 13.2028 7.48608 13.1306 7.46347 13.0628C7.44086 12.995 7.40261 12.9334 7.3518 12.8832L6.24577 11.8205L7.78562 11.6037Z" fill="#002868"/>
</g>
<defs>
<clipPath id="clip0_11608_9520">
<rect width="18" height="18" fill="white" transform="translate(0 0.5)"/>
</clipPath>
</defs>
</svg>
