<svg width="36" height="36" viewBox="0 0 36 36" fill="none" xmlns="http://www.w3.org/2000/svg">
<path d="M13.5 16.125C11.22 16.125 9.375 14.28 9.375 12C9.375 9.72 11.22 7.875 13.5 7.875C15.78 7.875 17.625 9.72 17.625 12C17.625 14.28 15.78 16.125 13.5 16.125ZM13.5 10.125C13.0027 10.125 12.5258 10.3225 12.1742 10.6742C11.8225 11.0258 11.625 11.5027 11.625 12C11.625 12.4973 11.8225 12.9742 12.1742 13.3258C12.5258 13.6775 13.0027 13.875 13.5 13.875C13.9973 13.875 14.4742 13.6775 14.8258 13.3258C15.1775 12.9742 15.375 12.4973 15.375 12C15.375 11.5027 15.1775 11.0258 14.8258 10.6742C14.4742 10.3225 13.9973 10.125 13.5 10.125Z" fill="#CCCCCC"/>
<path d="M13.5 16.125C11.22 16.125 9.375 14.28 9.375 12C9.375 9.72 11.22 7.875 13.5 7.875C15.78 7.875 17.625 9.72 17.625 12C17.625 14.28 15.78 16.125 13.5 16.125ZM13.5 10.125C13.0027 10.125 12.5258 10.3225 12.1742 10.6742C11.8225 11.0258 11.625 11.5027 11.625 12C11.625 12.4973 11.8225 12.9742 12.1742 13.3258C12.5258 13.6775 13.0027 13.875 13.5 13.875C13.9973 13.875 14.4742 13.6775 14.8258 13.3258C15.1775 12.9742 15.375 12.4973 15.375 12C15.375 11.5027 15.1775 11.0258 14.8258 10.6742C14.4742 10.3225 13.9973 10.125 13.5 10.125Z" fill="#555555"/>
<path d="M22.5 34.125H13.5C5.355 34.125 1.875 30.645 1.875 22.5V13.5C1.875 5.355 5.355 1.875 13.5 1.875H19.5C20.115 1.875 20.625 2.385 20.625 3C20.625 3.615 20.115 4.125 19.5 4.125H13.5C6.585 4.125 4.125 6.585 4.125 13.5V22.5C4.125 29.415 6.585 31.875 13.5 31.875H22.5C29.415 31.875 31.875 29.415 31.875 22.5V15C31.875 14.385 32.385 13.875 33 13.875C33.615 13.875 34.125 14.385 34.125 15V22.5C34.125 30.645 30.645 34.125 22.5 34.125Z" fill="#CCCCCC"/>
<path d="M22.5 34.125H13.5C5.355 34.125 1.875 30.645 1.875 22.5V13.5C1.875 5.355 5.355 1.875 13.5 1.875H19.5C20.115 1.875 20.625 2.385 20.625 3C20.625 3.615 20.115 4.125 19.5 4.125H13.5C6.585 4.125 4.125 6.585 4.125 13.5V22.5C4.125 29.415 6.585 31.875 13.5 31.875H22.5C29.415 31.875 31.875 29.415 31.875 22.5V15C31.875 14.385 32.385 13.875 33 13.875C33.615 13.875 34.125 14.385 34.125 15V22.5C34.125 30.645 30.645 34.125 22.5 34.125Z" fill="#555555"/>
<path d="M27 13.1249C26.385 13.1249 25.875 12.6149 25.875 11.9999V2.99991C25.875 2.54991 26.145 2.12991 26.565 1.96491C26.985 1.79991 27.465 1.88991 27.795 2.20491L30.795 5.20491C31.23 5.63991 31.23 6.35991 30.795 6.79491C30.36 7.22991 29.64 7.22991 29.205 6.79491L28.125 5.71491V11.9999C28.125 12.6149 27.615 13.1249 27 13.1249Z" fill="#CCCCCC"/>
<path d="M27 13.1249C26.385 13.1249 25.875 12.6149 25.875 11.9999V2.99991C25.875 2.54991 26.145 2.12991 26.565 1.96491C26.985 1.79991 27.465 1.88991 27.795 2.20491L30.795 5.20491C31.23 5.63991 31.23 6.35991 30.795 6.79491C30.36 7.22991 29.64 7.22991 29.205 6.79491L28.125 5.71491V11.9999C28.125 12.6149 27.615 13.1249 27 13.1249Z" fill="#555555"/>
<path d="M24 7.12516C23.715 7.12516 23.43 7.02016 23.205 6.79516C22.9958 6.58345 22.8785 6.2978 22.8785 6.00016C22.8785 5.70251 22.9958 5.41686 23.205 5.20516L26.205 2.20516C26.64 1.77016 27.36 1.77016 27.795 2.20516C28.23 2.64016 28.23 3.36016 27.795 3.79516L24.795 6.79516C24.57 7.02016 24.285 7.12516 24 7.12516ZM4.00501 29.5502C3.76525 29.5485 3.53228 29.4704 3.33998 29.3271C3.14769 29.1839 3.0061 28.9831 2.93583 28.7539C2.86555 28.5246 2.87025 28.2789 2.94924 28.0526C3.02823 27.8262 3.17738 27.6309 3.37501 27.4952L10.77 22.5302C12.39 21.4502 14.625 21.5702 16.095 22.8152L16.59 23.2502C17.34 23.8952 18.615 23.8952 19.35 23.2502L25.59 17.8952C27.18 16.5302 29.685 16.5302 31.29 17.8952L33.735 19.9952C34.2 20.4002 34.26 21.1052 33.855 21.5852C33.45 22.0502 32.73 22.1102 32.265 21.7052L29.82 19.6052C29.07 18.9602 27.81 18.9602 27.06 19.6052L20.82 24.9602C19.23 26.3252 16.725 26.3252 15.12 24.9602L14.625 24.5252C13.935 23.9402 12.795 23.8802 12.03 24.4052L4.65001 29.3702C4.44001 29.4902 4.21501 29.5502 4.00501 29.5502Z" fill="#CCCCCC"/>
<path d="M24 7.12516C23.715 7.12516 23.43 7.02016 23.205 6.79516C22.9958 6.58345 22.8785 6.2978 22.8785 6.00016C22.8785 5.70251 22.9958 5.41686 23.205 5.20516L26.205 2.20516C26.64 1.77016 27.36 1.77016 27.795 2.20516C28.23 2.64016 28.23 3.36016 27.795 3.79516L24.795 6.79516C24.57 7.02016 24.285 7.12516 24 7.12516ZM4.00501 29.5502C3.76525 29.5485 3.53228 29.4704 3.33998 29.3271C3.14769 29.1839 3.0061 28.9831 2.93583 28.7539C2.86555 28.5246 2.87025 28.2789 2.94924 28.0526C3.02823 27.8262 3.17738 27.6309 3.37501 27.4952L10.77 22.5302C12.39 21.4502 14.625 21.5702 16.095 22.8152L16.59 23.2502C17.34 23.8952 18.615 23.8952 19.35 23.2502L25.59 17.8952C27.18 16.5302 29.685 16.5302 31.29 17.8952L33.735 19.9952C34.2 20.4002 34.26 21.1052 33.855 21.5852C33.45 22.0502 32.73 22.1102 32.265 21.7052L29.82 19.6052C29.07 18.9602 27.81 18.9602 27.06 19.6052L20.82 24.9602C19.23 26.3252 16.725 26.3252 15.12 24.9602L14.625 24.5252C13.935 23.9402 12.795 23.8802 12.03 24.4052L4.65001 29.3702C4.44001 29.4902 4.21501 29.5502 4.00501 29.5502Z" fill="#555555"/>
</svg>
